<?xml version="1.0" encoding="UTF-8" standalone="no"?>
<svg
   role="img"
   viewBox="0 0 762.92635 256.88802"
   width="762.92633"
   height="256.888"
   xml:space="preserve"
   version="1.1"
   id="svg11"
   sodipodi:docname="logo-full.svg"
   inkscape:version="1.4.2 (unknown)"
   xmlns:inkscape="http://www.inkscape.org/namespaces/inkscape"
   xmlns:sodipodi="http://sodipodi.sourceforge.net/DTD/sodipodi-0.dtd"
   xmlns="http://www.w3.org/2000/svg"
   xmlns:svg="http://www.w3.org/2000/svg"
   xmlns:rdf="http://www.w3.org/1999/02/22-rdf-syntax-ns#"
   xmlns:cc="http://creativecommons.org/ns#"
   xmlns:dc="http://purl.org/dc/elements/1.1/"><defs
     id="defs11" /><sodipodi:namedview
     id="namedview11"
     pagecolor="#ffffff"
     bordercolor="#000000"
     borderopacity="0.25"
     inkscape:showpageshadow="2"
     inkscape:pageopacity="0.0"
     inkscape:pagecheckerboard="0"
     inkscape:deskcolor="#d1d1d1"
     inkscape:zoom="0.99884345"
     inkscape:cx="553.64031"
     inkscape:cy="50.558473"
     inkscape:window-width="2407"
     inkscape:window-height="1500"
     inkscape:window-x="0"
     inkscape:window-y="0"
     inkscape:window-maximized="0"
     inkscape:current-layer="svg11" /><title
     id="title1">Vikunja</title><desc
     id="desc1">Vikunja's Logo: A Llama one the left, with the text &quot;Vikunja&quot; on the right.</desc><path
     fill="#196aff"
     d="M 193.14465,78.1788 C 172.6176,52.778311 141.63406,38.116733 108.9769,38.350173 76.322916,38.239462 45.363743,52.874706 24.724029,78.1788 8.6903581,97.630659 -0.03980268,122.07511 0.04389572,147.28317 c 0,29.10554 11.31882028,56.42389 31.91396528,77.01903 20.38282,20.49373 48.114935,31.98494 77.019039,31.91397 29.10553,0 56.42388,-11.31881 77.01903,-31.91397 20.49373,-20.38282 31.98494,-48.11493 31.91397,-77.01903 -0.14984,-25.18199 -8.88608,-49.559377 -24.76525,-69.10437"
     id="path1"
     style="fill:#e66100;fill-opacity:1;stroke-width:0.851039"
     sodipodi:nodetypes="ccccccccc" /><path
     fill="#ffffff"
     d="m 142.67804,176.3036 c 4.085,-11.91455 10.7231,-15.48891 11.57414,-33.87135 0.34041,-6.38279 -1.70209,-26.89284 -1.70209,-26.89284 0,0 3.23395,-8.16997 -2.89353,-17.276086 -9.44653,-14.212353 -28.93532,-15.148497 -39.1478,-15.148497 -10.29757,0 -29.616153,0.936144 -39.062687,15.148497 -6.127481,9.106116 -2.893533,17.276086 -2.893533,17.276086 l -1.95739,19.82922 a 51.743175,51.743175 0 0 0 3.233948,23.82909 c 1.616975,4.5105 4.170092,9.10611 6.127483,13.70173 5.872169,14.04214 0.936142,31.31824 1.276558,46.46673 0.255312,10.72309 -2.297806,21.53129 -3.319053,31.99907 a 108.59258,108.59258 0 0 0 74.210614,-1.44677 c -2.29781,-13.106 -5.02114,-25.53117 -5.44666,-30.29699 -1.19146,-14.38255 -4.68071,-29.53106 0,-43.31789"
     id="path2"
     style="stroke-width:0.851039" /><path
     fill="#ffffff"
     d="m 67.701501,92.816671 c 0.170208,2.04249 0.340416,4.255194 0.936143,6.297696 0.170208,0.68083 0.510624,2.212693 1.276559,2.553113 1.021246,0.25531 2.978637,-1.02125 3.659467,-1.53187 l 4.170092,-3.148851 2.723325,-1.872278 c 0.936143,-0.765937 1.702078,-1.702076 2.468014,-2.553119 0.936143,-1.021245 1.702077,-2.127597 2.382909,-3.319056 0.595727,-0.851032 4.255196,-1.531862 4.850923,-2.382906 0.595727,-0.936138 0,-2.127597 0,-3.233949 0,-8.510391 0.595727,-16.76547 0.851038,-25.020548 0.170208,-5.616859 2.38291,-12.340067 -6.127481,-9.701846 -18.212235,5.616858 -17.956924,30.72251 -17.190989,43.828507 m 80.167879,11.829446 -0.76593,-0.51062 c -1.02126,-0.85104 -1.95739,-1.53187 -2.80844,-2.46801 l -3.23394,-3.23395 -2.80843,-2.97864 -1.70208,-2.042491 -0.59572,-1.191459 c -0.25531,-0.595723 -4.51052,-1.191458 -4.085,-1.702075 0.68083,-0.93615 2.29781,-1.702076 2.72334,-2.808428 1.95738,-5.531756 2.80842,-27.743876 2.97862,-33.445838 0.68084,-14.467663 13.36132,0.680832 15.57403,6.553001 6.46788,17.020781 2.63821,29.36085 -5.19135,43.82851"
     id="path3"
     style="stroke-width:0.851039" /><path
     fill="#f1e6d3"
     d="m 130.50818,160.38918 c 0,-8.4253 -1.02124,-11.74434 -5.70196,-15.82933 -2.89353,-2.55312 -6.29768,-3.57437 -11.74434,-3.40415 -5.44665,-0.17022 -9.36143,1.44676 -12.16986,4.42539 -4.255191,4.42541 -5.446645,7.06362 -5.446645,15.40381 0,4.51051 4.850925,14.46766 6.382795,16.85058 2.38291,4.08498 6.80831,5.53175 11.23371,5.27644 4.3403,0.25531 8.7657,-1.19146 11.23372,-5.27644 a 47.998603,47.998603 0 0 0 6.21258,-17.4463"
     id="path4"
     style="stroke-width:0.851039" /><path
     fill="#f1d7d4"
     d="m 74.935333,100.47603 c -1.106351,-9.786957 -4.340299,-27.233256 6.97852,-37.615933 1.27656,-1.191454 1.616975,2.723326 1.787182,4.255196 0.340416,2.212702 0,8.425286 0,10.552885 0.170209,4.084987 1.021248,6.212584 0.595728,8.08487 -1.10635,5.106238 -1.957389,4.850919 -2.978637,7.914666 -2.127597,6.212579 -6.042377,9.446526 -6.382793,6.808316 m 70.976657,-1.957398 c 1.10635,2.042488 4.17009,-9.106113 5.10624,-13.957042 0.85103,-4.595608 2.04249,-10.637984 0.42551,-15.233595 -0.85103,-2.382909 -5.95727,-9.531638 -6.55299,-7.148729 -0.25532,1.021248 -0.42553,8.084871 -1.02125,11.489028 -0.68083,4.255195 -1.95739,8.425287 -2.0425,12.680478 0,9.616741 2.89353,9.957156 4.08499,12.16986"
     id="path5"
     style="stroke-width:0.851039" /><path
     fill="#faeee0"
     d="m 108.46627,213.49402 c -0.25531,0.76592 -2.1276,1.27655 -2.80843,1.53186 -1.70207,0.51063 -3.23395,-0.85103 -4.17009,-1.95739 -1.27656,-1.53187 -1.27656,-3.99988 -1.787181,-5.78706 -0.340415,-1.10636 -2.2127,-1.27656 -2.808428,-0.25531 -1.872286,3.40415 -9.191222,-2.97864 -7.489144,-5.10624 1.106351,-1.44677 -1.616974,-2.63822 -2.723324,-1.27655 -3.23395,4.08498 5.616857,11.74433 10.637987,9.70183 l 0.851039,2.97864 c 0.85104,1.9574 2.808431,3.14885 4.680711,4.2552 2.63823,1.36166 7.74446,-1.10635 8.5104,-3.48926 0.59572,-1.70208 -2.38291,-2.2127 -2.89354,-0.59572 m 23.31848,-24.76525 c 0.25531,1.10636 0.34041,4.93603 -1.78718,2.89354 -0.85105,-0.85105 -2.55312,-0.34042 -2.63823,0.76593 -0.17021,2.63822 -2.80843,2.72333 -5.10624,1.87229 -1.87228,-0.59573 -2.80843,1.95739 -1.02124,2.55311 3.40416,1.19146 7.06362,0.51063 8.51039,-2.04249 1.10635,0.59572 2.38291,0.68083 3.40416,-0.25531 1.87228,-1.70207 2.1276,-4.17009 1.61697,-6.38279 -0.42552,-1.70208 -3.40415,-1.10635 -2.97863,0.59572 m 5.36153,55.48775 c -0.85103,1.61698 -2.21269,1.53187 -3.82967,0.85104 -1.10635,-0.51063 -2.55312,0.25531 -2.2127,1.44677 0.76593,2.29781 -2.2127,2.97864 -4.2552,2.2127 -1.70207,-0.76594 -3.23395,1.53186 -1.44677,2.2978 3.57437,1.44677 8.16999,0.17021 8.76571,-2.97863 2.2978,0.34042 4.51051,-0.25532 5.61686,-2.55312 0.85104,-1.53187 -1.87229,-2.89353 -2.55312,-1.27656 M 113.91293,118.94357 c -0.42553,2.2978 -4.68072,-0.42552 -5.78707,-1.10635 -0.85104,-0.68083 -2.1276,-0.25531 -2.21271,0.85104 -0.1702,1.36167 -2.12759,0.93614 -2.97863,0.85104 -1.70208,-0.42552 -3.148846,-1.44677 -3.148846,-2.97863 0,-1.53188 0.851036,-3.14886 1.361666,-4.59562 0.34041,-0.93614 -0.93615,-1.95739 -1.87229,-1.36166 -1.702078,1.10635 -10.127364,2.12759 -6.808313,-1.53187 1.106351,-1.10635 -0.851038,-2.80844 -1.872285,-1.61698 -1.53187,1.70208 -2.553117,5.53176 0.765935,6.3828 1.702079,0.42552 4.255195,0.34041 6.467897,-0.0851 -0.851039,2.89353 -1.106351,5.53176 2.553116,7.31894 2.55312,1.27656 5.95727,1.27656 7.48914,-0.68083 3.06375,1.70208 7.91466,3.31906 8.5104,-0.85104 0.25531,-1.44677 -2.29781,-2.1276 -2.55312,-0.59572"
     id="path6"
     style="stroke-width:0.851039" /><path
     fill="#494949"
     d="m 99.530362,171.9633 c 4.425408,0.42553 8.935908,1.44677 13.446418,1.27657 2.80842,-0.17021 5.78706,-0.51063 8.6806,-0.93615 2.04249,-0.34042 4.59561,-0.68083 5.95727,-2.2127 0.17021,5.10623 -10.46777,6.72321 -14.63787,6.80831 -4.76582,0.0851 -10.12737,-1.95739 -13.446418,-4.93603"
     id="path7"
     style="stroke-width:0.851039" /><path
     fill="#494949"
     d="m 111.53001,161.32532 c -0.51062,3.31905 -0.59572,6.6381 -0.25531,9.87205 0,0.85104 -0.1702,2.97864 1.02125,3.40416 0.85104,0.34041 2.04249,-0.34042 2.2127,-1.19146 0.25531,-1.36166 -0.34042,-3.14884 -0.42552,-4.59561 0,-1.70207 0,-3.40415 0.17021,-5.10624 0.1702,-1.02124 0.68083,-2.3829 -0.42552,-3.06373 -0.85104,-0.51063 -2.1276,-0.34042 -2.29781,0.68083"
     id="path8"
     style="stroke-width:0.851039" /><path
     fill="#494949"
     d="m 120.29572,153.32555 c -2.72333,0.17021 -5.19135,1.70208 -7.23384,3.06374 -1.78718,-1.19146 -4.59561,-2.29781 -6.80831,-1.70207 -1.44677,0.42551 -0.17021,0.85103 0.34042,1.19144 a 12.765586,12.765586 0 0 1 2.72332,2.55312 c 1.19145,1.44677 2.2127,2.97864 3.40416,4.2552 0.93614,-0.51062 1.70207,-1.19145 2.55312,-1.87229 l 3.65947,-4.85092 0.85103,-1.27655 c 0.34041,-0.42552 1.27656,-1.02126 0.51063,-1.36167"
     id="path9"
     style="stroke-width:0.851039" /><path
     fill="#2c3844"
     d="m 86.254153,135.19841 c 1.361662,-3.40415 2.808429,-7.82955 6.382793,-7.06362 2.808429,0.51063 6.467896,9.70185 4.084987,8.85081 -1.276558,-0.51062 -2.297806,-4.68072 -4.680715,-5.19134 -1.53187,-0.34041 -3.659468,4.93603 -5.701962,5.44666 -0.936142,0.25531 -0.425519,-1.19146 0,-2.04251 m 38.977594,0 c 1.36166,-3.40415 2.72332,-7.82955 6.38279,-7.06362 2.72332,0.51063 6.4679,9.70185 4.08498,8.85081 -1.27655,-0.51062 -2.2978,-4.68072 -4.68071,-5.19134 -1.53187,-0.34041 -3.65946,4.93603 -5.70197,5.44666 -0.93613,0.25531 -0.51061,-1.19146 -0.0851,-2.04251"
     id="path10"
     style="stroke-width:0.851039" /><text
     xml:space="preserve"
     style="font-style:normal;font-variant:normal;font-weight:bold;font-stretch:normal;font-size:160px;font-family:'Open Sans';-inkscape-font-specification:'Open Sans, Bold';font-variant-ligatures:normal;font-variant-caps:normal;font-variant-numeric:normal;font-variant-east-asian:normal;text-align:start;letter-spacing:0px;writing-mode:lr-tb;direction:ltr;text-anchor:start;fill:#e66100;fill-opacity:1;stroke:none;stroke-width:0.28124;stroke-linecap:square"
     x="257.96686"
     y="194.65707"
     id="text11"><tspan
       sodipodi:role="line"
       id="tspan11"
       x="257.96686"
       y="194.65707"
       style="font-style:normal;font-variant:normal;font-weight:bold;font-stretch:normal;font-size:149.333px;font-family:Sans;-inkscape-font-specification:'Sans, Bold';font-variant-ligatures:normal;font-variant-caps:normal;font-variant-numeric:normal;font-variant-east-asian:normal;stroke-width:0.28124;fill:#e66100">Vikunja</tspan></text><metadata
     id="metadata11"><rdf:RDF><cc:Work
         rdf:about=""><dc:title>Vikunja</dc:title></cc:Work></rdf:RDF></metadata></svg>
