<?xml version="1.0" encoding="UTF-8" standalone="no"?>
<!-- Created with Inkscape (http://www.inkscape.org/) -->

<svg
   width="53.630001mm"
   height="53.630001mm"
   viewBox="0 0 53.630001 53.630002"
   version="1.1"
   id="svg5"
   inkscape:version="1.3.2 (091e20ef0f, 2023-11-25)"
   sodipodi:docname="favicon.svg"
   inkscape:export-filename="icon.png"
   inkscape:export-xdpi="112.11034"
   inkscape:export-ydpi="112.11034"
   xmlns:inkscape="http://www.inkscape.org/namespaces/inkscape"
   xmlns:sodipodi="http://sodipodi.sourceforge.net/DTD/sodipodi-0.dtd"
   xmlns="http://www.w3.org/2000/svg"
   xmlns:svg="http://www.w3.org/2000/svg">
  <sodipodi:namedview
     id="namedview7"
     pagecolor="#ffffff"
     bordercolor="#999999"
     borderopacity="1"
     inkscape:showpageshadow="0"
     inkscape:pageopacity="0"
     inkscape:pagecheckerboard="0"
     inkscape:deskcolor="#d1d1d1"
     inkscape:document-units="mm"
     showgrid="false"
     inkscape:zoom="0.78395062"
     inkscape:cx="252.56693"
     inkscape:cy="-192.61417"
     inkscape:window-width="2753"
     inkscape:window-height="1080"
     inkscape:window-x="0"
     inkscape:window-y="0"
     inkscape:window-maximized="0"
     inkscape:current-layer="layer2" />
  <defs
     id="defs2" />
  <g
     inkscape:groupmode="layer"
     id="layer2"
     inkscape:label="Layer 2"
     style="display:inline"
     transform="translate(-0.45916863,-0.49456415)">
    <path
       style="fill:#90bf60;fill-opacity:1;stroke:none;stroke-width:1.07;stroke-linecap:round;stroke-dasharray:none"
       d="M 29.880949,30.046588 C 27.982889,27.347579 17.263502,28.434387 11.927732,28.578194 7.5155615,28.985716 1.1721415,27.717526 0.47767153,22.471584 c -0.403,-5.293654 5.88101997,-3.5435 8.70870997,-1.915759 6.3122605,2.518363 11.1576205,3.292753 20.0792075,2.795347 8.05705,-0.712479 12.47942,-6.590447 19.71686,-5.637794 5.43295,1.316159 2.94988,7.483876 -2.25739,7.483876 -3.48582,0.174621 -15.53375,2.701186 -9.09832,6.194921 4.52989,2.168072 9.79119,-2.354993 14.38008,0.213802 4.33734,2.479672 1.20649,7.895052 -3.08278,7.895052 -5.07352,0 -8.6358,-2.828519 -13.30351,-3.065774 -10.11567,-1.396106 -20.649047,1.01905 -29.0941475,6.773432 -4.97312,2.067936 -6.20738997,-4.809008 -3.19655,-7.819849 2.96752,-3.271323 7.4043005,-2.504385 11.4385405,-2.504385 4.68121,0 17.877397,0.800076 15.112577,-2.837865 z"
       id="path2"
       sodipodi:nodetypes="ccccccccccccccc" />
    <path
       style="fill:#90bf60;fill-opacity:1;stroke:none;stroke-width:1.07;stroke-linecap:round;stroke-dasharray:none"
       d="m 27.692559,39.961902 c 4.84193,-0.83528 10.23206,-0.234856 14.21853,2.847087 1.19374,0.878884 2.32531,2.099461 2.19654,3.691402 0.0123,1.901289 -1.93647,3.202636 -3.71057,3.069479 -1.31839,-0.03311 -2.59427,-0.68084 -3.42592,-1.699882 -3.24623,-1.894829 -6.92,-3.763016 -10.79644,-3.214488 -1.90526,0.22633 -3.567664,1.294128 -4.876834,2.650552 -1.73565,1.57499 -3.33147,3.669144 -5.75683,4.141596 -1.2633,0.172464 -2.83863,-0.407709 -3.45133,-1.504412 -0.36697,-1.987131 0.91031,-3.843991 2.53107,-4.863533 2.18457,-1.443182 4.69066,-2.283273 7.04706,-3.389565 1.951037,-0.754298 3.965644,-1.352959 6.024724,-1.728236 z"
       id="path3" />
    <path
       style="fill:#90bf60;fill-opacity:1;stroke:none;stroke-width:1.07;stroke-linecap:round;stroke-dasharray:none"
       d="m 14.952363,16.815033 c 4.85942,2.25156 8.191436,3.233829 14.608026,2.967642 3.29017,-0.405915 7.31491,-1.326366 8.70851,-4.732889 0.84705,-3.111138 -2.16526,-4.871122 -4.705058,-3.497615 C 29.641564,13.884857 24.4686,14.221799 25.315609,10.473569 26.738599,8.8201851 29.30888,9.1602207 29.0062,6.2778502 28.638264,3.9524665 27.635449,2.6966588 25.627829,2.3113035 c -2.422659,-0.2540486 -5.463955,-0.09089 -7.494995,2.64274 -1.87593,4.403186 4.959648,4.1520761 3.960196,6.4782165 -1.933145,3.783139 -9.739226,-2.4942732 -11.113926,0.538296 -0.67128,2.50525 1.709336,3.485682 3.973259,4.844477 z"
       id="path4"
       sodipodi:nodetypes="ccccccccccc" />
  </g>
</svg>
