<svg xmlns="http://www.w3.org/2000/svg" width="683.56" height="683.56" version="1.0"><g style="display:inline"><g style="fill:#000"><path d="M343.563 521.51c-26.42 1.144-88.145-16.802-84.778 6.198 3.688 16.749 31.88 11.878 63.554 20.258 41.05 9.78 79.548 8.774 119.165-4.161 19.675-7.745-24.628-15.885-34.15-17.558-21.154-3.164-42.492-8.672-63.79-4.737" style="display:inline;fill:#5e5c64;stroke:none;stroke-width:.749586;stroke-linecap:round" transform="rotate(-3.638 -503.776 2739.168)scale(1.26054)"/><path d="M344.025 534.114c-1.657-33.026.206-65.755 5.687-98.302 8.952-81.102 22.31-163.19 15.549-244.616-23.866-30.929-18.677-71.762 8.519-39.961 7.086 14.102 16.745 38.816 29.57 2.037 82.706-48.562-29.384 35.976-22.098 156.206-2.363 45.591-6.866 91.073-7.748 136.737 16.766 35.471 39.001-35.11 52.695-74.92 13.22-20.085 39.506-48.049 55.608-24.546-50.733 12.002-47.342 73.08-64.38 111.649-19.138 22.712-47.163 47.498-33.067 80.041-11.444 10.6-28.905 1.604-40.335-4.325" style="opacity:1;fill:#986a44;stroke:none;stroke-width:.749586;stroke-linecap:round" transform="rotate(-3.638 -503.776 2739.168)scale(1.26054)"/><path d="M421.98 446.284c12.54-4.498 15.272-23.223 19.8-35.201 7.278-10.426 11.337-17.568 25.12-14.474 7.463 2.225 31.752 6.007 26.95 18.521-9.453 7.787-26.29-14.482-36.654-7.113-11.902 8.495-8.468 30.316-20.16 38.96-6.083 3.416-22.58 16-27.852 20.896" style="opacity:1;fill:#986a44;stroke:none;stroke-width:.749586;stroke-linecap:round" transform="rotate(-3.638 -503.776 2739.168)scale(1.26054)"/><path d="M406.717 470.127c2.917-2.012 6.272-2.902 9.647-3.758.991-.252 1.971-.571 2.984-.715 1.2-.17 2.422-.123 3.63-.22.875-.072 1.742-.225 2.617-.287 3.04-.214 5.47.028 8.456.312.599.057 1.205.034 1.8.114 1.091.148 2.145.51 3.236.658.41.055.827.032 1.238.079 1.906.217 3.806.468 5.726.59.82.052 1.774.23 2.596.052.313-.069.607-.215.921-.28.376-.08.77-.056 1.14-.154.325-.086.611-.284.93-.393.146-.05.324-.003.457-.084.272-.166.478-.422.718-.633.764-.673 1.32-1.2 1.388-2.284.005-.075.064-.17.014-.226-1.221-1.387-1.815-1.11-3.523-1.467-1.537-.32-3.017-.887-4.557-1.193-.591-.118-1.199-.13-1.794-.227-2.938-.477-2.459-.499-5.246-1.012-3.3-.607-6.635-1.049-9.967-1.424-2.843-.32-1.791-.279-4.84-.308-.528-.005-1.06-.058-1.583.012-1.561.21-2.807 1.188-4.082 2.001-.958.611-1.98 1.118-2.936 1.735-.449.29-.851.647-1.302.934-2.455 1.565-6.196 3.227-7.716 5.838-.133.228-.783.997-.649 1.315.161.38.47.68.697 1.025" style="display:inline;fill:#986a44;stroke:none;stroke-width:.749586;stroke-linecap:round" transform="rotate(-3.638 -503.776 2739.168)scale(1.26054)"/><path d="M389.11 408.144c11.738-22.083 18.029-41.523 26.508-65.086 6.702-12.536 13.432-31.96 30.014-34.99 17.68 1.38 21.988-22.844 2.491-23.244-15.989-7.959-31.016-11.342-26.704 8.26-8.31 22.015-15.713 43.483-27.018 68.495-11.17 24.109-45.039 59.114-16.59 91.384.178-5.984 3.35-34.403 11.3-44.819M356.14 380.967c-5.788-21.782-20.138-40.647-22.805-63.422-6.37-16.975-25.085-27.71-42.923-26.064-25.074-4.546-52.092-5.656-75.56 5.857-6.644 2.788-24.363 4.919-24.744-.25 11.762-4.469 24.7-4.963 36.064-10.773 19.608-6.816 40.796-6.771 61.312-7.74 13.621 1.62 29.077 2.559 38.598 13.925 18.03 15.056 22.477 39.208 32.057 59.457 2.802 9.49 2.554 20.09-1.998 29.01" style="opacity:1;fill:#986a44;stroke:none;stroke-width:.749586;stroke-linecap:round" transform="rotate(-3.638 -503.776 2739.168)scale(1.26054)"/><path d="M333.335 317.545c-7.075-16.244-8.456-34.486-15.802-50.506-9.486-15.856-29.074-14.685-44.961-17.15-16.104-2.904-31.65-8.135-47.521-12.018 8.885-11.656 25.156 2.127 37.28.638 20.625 3.643 42.888 5.558 60.764 17.27 15.156 15.779 19.327 38.74 20.36 59.766.06 5.661-7.68 5.846-10.12 2" style="opacity:1;fill:#986a44;stroke:none;stroke-width:.749586;stroke-linecap:round" transform="rotate(-3.638 -503.776 2739.168)scale(1.26054)"/><path d="M328.845 262.815c-2.589-12.584-4.706-28.06-11.88-39.29-9.145-19.346-24.24-30.906-42.896-40.306-5.025-2.825-10.663-4.504-15.474-7.675-5.099-3.64.061-9.671 4.445-10.865 5.671-2.071 11.809-1.84 17.658-3.343 16.886-2.522 34.595-2.024 50.845 3.437 6.185 3.352 6.332 11.467 3.783 17.199-2.993 8.704-10.276 15.782-10.52 25.403-.648 11.294 4.41 22.564 6.371 33.574 2.779 12.716 4.63 25.014 6.12 37.972-3.736 6.57-7.516-5.127-8.228-8.465-.419-2.424-1.563-5.35-.224-7.64M345.864 464.08c-6.92-18.252-29.944-23.547-47.212-18.903-11.955-1.198-25.606 19.722-33.712 10.8 3.064-12.89 18.904-16.648 29.779-21.265 16.797-4.179 34.08 2.183 49.12 9.23 7.88 3.701 11.307 16.089 2.025 20.138M350.7 443.938c-14.582-19.238-25.931-30.122-32.54-53.677-3.827-23.042-30.807-26.012-47.424-26.444-8.818.533-33.635-5.159-12.54-6.729 16.923 3.712 34.603-2.082 51 4.059 19.947 9.463 20.272 33.925 32.36 50.364 6.738 8.52 23.46 23.063 9.143 32.427" style="opacity:1;fill:#986a44;stroke:none;stroke-width:.749586;stroke-linecap:round" transform="rotate(-3.638 -503.776 2739.168)scale(1.26054)"/><path d="M311.5 419.778c-35.104 2.768-77.655 1.026-112.11 9.14-11.799 4.36-13.867 27.056.153 28.828 10.539-.172 23.95-13.41 34.953-12.299 12.016.063 8.012 17.327.211 23.178-29.926 16.592 15.755 6.986 18.344 12.29 8.08 8.116 21.99 14.827 25.323-1.39 8.275-6.722 26.245 7.336 35.993 5.365 10.566-3.352-9.785-21.753-16.815-20.958-8.572-3.902-18.183-6.094-17.673-17.324 8.268-9.588 17.82-5.811 28.659-8.918 13.214 1.12 19.112-12.844 4.934-16.867zm17.825 13.23.546.155zM507.723 388.987c-17.605-8.233-35.906 10.477-35.182 27.908-1.465 15.355 13.134 23.028 25.178 27.884 14.087 2.881 10.716 20.254-2.759 20.366-16.625.705-34.06-12.907-49.889-2.272-12.33 5.72-29.91 26.507-21.215 38.764 7.886 11.104 37.998 5.057 49.367 8.37 37.817 6.627 65.9 21.609 101.827 33.913 13.76 1.086 20.79-12.255 29.42-20.335 8.736-5.61 23.641-2.583 26.532-15.903-1.08-14.443-21.09-8.368-30.48-13.64-13.477-3.071-32.015-15.997-24.841-31.68 8.747-13.75 30.804-5.517 38.062-20.883 6.267-15.575-11.296-27.235-24.198-31.02-15.133-6.107-29.914-14.276-46.656-14.702-11.839-1.5-23.888-2.609-35.166-6.77M223.486 334.007c-25.778 9.058-33.246 47.161-63.264 47.234-23.481.393-30.966 37.128-7.09 43.125 26.074-1.75 19.293-44.538 49.724-39.78 31.708-1.225 60.447 25.681 92.239 15.33 17.486-3.562 15.943-22.793 11.468-33.794 12.277-17.38 42.795 5.882 51.673-15.788-8.81-20.246-33.7-5.277-50.02-8.56-28.407-.027-56.737-3.081-84.73-7.767" style="opacity:1;fill:#239a58;stroke:none;stroke-width:.749586;stroke-linecap:round;fill-opacity:1" transform="rotate(-3.638 -503.776 2739.168)scale(1.26054)"/><path d="M456.114 351.657c5.388 8.429 15.127 9.98 27.095 9.953-.74 8.98-21.96 22.088-4.364 26.968 13.9.518 26.397-10.726 40.94-6.37 16.055 9.498 19.995-10.186 23.345-18.695 12.663-.044 17.394 6.925 30.338 6.819 12.743.83 26.129-2.213 35.831-10.794 10.831-2.206 25.709-16.36 6.082-18.995-17.335-2.908-36.532 6.783-52.322-3.705-4.466-11.056-10.657-25.937-25.858-18.092-14.547 9.557-39.746-.06-53.958-3.043-16.793-.573-66.674 2.523-82.398 8.049-7.25 12.496 46.407 4.64 53.101 8.385 14.33 6.031 12.424 21.068 2.168 19.52" style="opacity:1;fill:#239a58;stroke:none;stroke-width:.749586;stroke-linecap:round;fill-opacity:1" transform="rotate(-3.638 -503.776 2739.168)scale(1.26054)"/><path d="M481.458 187.147c-33.947 15.561-102.364-5.786-109.395 35.41 22.51 2.574 49.167 8.99 13.42 20.457-32.678 21.89-105.03 22.33-120.89 17.99 39.848-9.064-3.933-46.154-29.02-39.241-20.072-13.004-81.788-2.522-45.992 20.877 23.944 39.512-16.296 57.353-44.037 53.269-36.728 44.708 51.33 25.917 68.602 14.76 42.537 27.248 82.068-3.13 120.874-18.117 76.315-10.282 151.945 13.453 227.445 21.81 63.416 14.162-16.238-54.975 4.283-87.644-24.046-17.827-67.422-10.602-85.29-39.57" style="opacity:1;fill:#239a58;stroke:none;stroke-width:.749586;stroke-linecap:round;fill-opacity:1" transform="rotate(-3.638 -503.776 2739.168)scale(1.26054)"/><path d="M383.781 158.51c-30.928 12.006-61.824 29.807-96.158 27.044-23.152 13.573-72.154 19.565-97.541 5.429-17.157-9.707 73.348-16.656 6.78-44.09-34.57-8.548 43.321-30.155 66.838-37.938 24.131-8.813 47.511-19.531 70.619-30.72 34.446-3.001 63.586-8.423 103.265 6.765 23.506-.264 49.233 13.697 55.286 37.642 4.548 15.02-23.768 25.868-2.654 35.325 17.785 7.238 33.977 12.977 51.633 20.678 21.91 5.477 10.973 35.36-9.145 28.307-16.345-6.62-34.657-6.286-51.98-8.915-20.696-2.704-42.828-6.013-59.91-18.81-9.171-9.93-20.633-33.798-37.033-20.717" style="opacity:1;fill:#239a58;stroke:none;stroke-width:.749586;stroke-linecap:round;fill-opacity:1" transform="rotate(-3.638 -503.776 2739.168)scale(1.26054)"/></g></g></svg>