<svg xmlns="http://www.w3.org/2000/svg" xml:space="preserve" width="683.56" height="683.56" version="1.0"><g style="display:inline"><g style="fill:#000"><path d="M344.743 502.707c-26.42 1.144-88.145-16.801-84.778 6.198 3.688 16.749 31.88 11.878 63.554 20.258 41.05 9.78 79.547 8.774 119.165-4.161 19.674-7.745-24.628-15.885-34.15-17.558-21.154-3.164-42.492-8.672-63.79-4.737" style="opacity:1;fill:#77767b;stroke:none;stroke-width:.749586;stroke-linecap:round;fill-opacity:1" transform="rotate(-3.638 -125.797 2751.176)scale(1.26054)"/><path d="M345.209 515.487c-1.657-33.026.205-65.755 5.686-98.302 8.953-81.102 22.312-163.19 15.55-244.616-23.866-30.929-18.677-71.763 8.519-39.961 7.086 14.102 16.745 38.816 29.57 2.037 82.706-48.562-29.384 35.976-22.098 156.206-2.363 45.59-6.866 91.073-7.748 136.737 16.766 35.47 39-35.11 52.695-74.92 13.219-20.085 39.506-48.049 55.608-24.546-50.733 12.002-47.342 73.08-64.38 111.649-19.139 22.712-43.411 46.298-33.067 80.041-11.444 10.6-28.905 1.603-40.335-4.325" style="opacity:1;fill:#9a9996;stroke:none;stroke-width:.749586;stroke-linecap:round;fill-opacity:1" transform="rotate(-3.638 -125.797 2751.176)scale(1.26054)"/><path d="M423.164 427.657c12.54-4.498 15.271-23.223 19.8-35.201 7.278-10.426 11.337-17.568 25.119-14.475 7.464 2.226 31.753 6.007 26.952 18.522-9.455 7.787-26.29-14.482-36.655-7.113-11.902 8.494-8.469 30.315-20.16 38.96-6.083 3.416-22.58 16-27.852 20.896M390.294 389.517c11.738-22.083 18.029-41.523 26.508-65.086 6.702-12.536 13.432-31.96 30.014-34.99 17.68 1.38 21.988-22.844 2.491-23.244-15.989-7.96-31.017-11.342-26.705 8.26-8.31 22.015-15.713 43.483-27.017 68.495-11.171 24.109-53.626 52.573-16.311 91.672-1.387-4.646 3.071-34.691 11.02-45.107M357.325 362.34c-5.789-21.782-20.14-40.648-22.807-63.422-6.37-16.975-25.084-27.71-42.922-26.064-25.074-4.546-52.092-5.656-75.56 5.857-6.644 2.788-24.363 4.919-24.744-.25 11.762-4.47 24.699-4.963 36.063-10.773 19.61-6.816 40.796-6.771 61.313-7.74 13.621 1.62 29.077 2.559 38.598 13.925 18.03 15.055 22.477 39.208 32.056 59.457 2.802 9.49 2.555 20.089-1.997 29.01" style="opacity:1;fill:#9a9996;stroke:none;stroke-width:.749586;stroke-linecap:round;fill-opacity:1" transform="rotate(-3.638 -125.797 2751.176)scale(1.26054)"/><path d="M334.518 298.918c-7.074-16.244-8.455-34.486-15.801-50.506-9.486-15.856-29.074-14.685-44.961-17.15-16.104-2.905-31.65-8.135-47.521-12.018 8.885-11.656 25.156 2.127 37.28.638 20.625 3.643 42.887 5.558 60.764 17.27 15.156 15.779 19.327 38.74 20.36 59.766.06 5.661-7.681 5.846-10.12 2" style="opacity:1;fill:#9a9996;stroke:none;stroke-width:.749586;stroke-linecap:round;fill-opacity:1" transform="rotate(-3.638 -125.797 2751.176)scale(1.26054)"/><path d="M330.029 244.188c-2.59-12.584-4.706-28.06-11.88-39.29-9.145-19.346-24.24-30.907-42.896-40.306-5.025-2.825-10.664-4.504-15.474-7.675-5.099-3.64.061-9.671 4.445-10.865 5.671-2.071 11.809-1.841 17.658-3.343 16.886-2.522 34.595-2.024 50.845 3.437 6.185 3.352 6.332 11.467 3.783 17.198-2.993 8.705-10.276 15.783-10.52 25.404-.648 11.294 4.41 22.563 6.371 33.574 2.779 12.716 4.63 25.014 6.12 37.972-3.736 6.57-7.517-5.127-8.228-8.465-.419-2.424-1.563-5.35-.224-7.64M347.048 445.453c-6.92-18.253-29.944-23.547-47.212-18.903-11.955-1.198-25.606 19.722-33.712 10.8 3.064-12.89 18.904-16.648 29.778-21.265 16.798-4.18 34.08 2.182 49.12 9.23 7.88 3.701 11.307 16.089 2.026 20.138M351.01 417.438c-7.967-13.26-21.784-20.962-34.643-28.648-6.74-6.773-20.146-8.375-23.1-17.59 5.175-9.712 14.78.31 20.338 4.29 9.511 6.168 17.63 14.234 27.797 19.442 7.236 3.884 16.253 11.341 12.14 20.586-2.97 3.95 4.473 3.28-2.533 1.92" style="opacity:1;fill:#9a9996;stroke:none;stroke-width:.749586;stroke-linecap:round;fill-opacity:1" transform="rotate(-3.638 -125.797 2751.176)scale(1.26054)"/><path d="M352.304 404.704c-14.581-19.238-26.691-39.173-33.3-62.728-3.827-23.042-30.046-16.96-46.663-17.393-8.818.533-33.636-5.159-12.541-6.729 16.924 3.712 34.604-2.082 51.002 4.059 19.946 9.463 20.27 33.925 32.359 50.364 6.737 8.52 23.46 23.063 9.143 32.427M410.368 449.246c2.917-2.012 6.272-2.902 9.647-3.758.991-.252 1.971-.572 2.984-.715 1.2-.17 2.422-.123 3.63-.221.875-.071 1.742-.224 2.617-.286 3.04-.214 5.47.028 8.456.312.599.057 1.205.033 1.8.114 1.091.148 2.145.51 3.236.658.41.055.827.032 1.238.079 1.906.217 3.806.467 5.726.59.82.052 1.774.23 2.596.051.313-.068.607-.214.921-.28.376-.079.77-.056 1.14-.154.325-.085.611-.283.93-.392.146-.051.324-.003.457-.084.272-.166.478-.422.718-.633.764-.673 1.32-1.2 1.388-2.285.005-.075.064-.168.014-.225-1.221-1.387-1.815-1.111-3.522-1.467-1.538-.32-3.017-.888-4.558-1.193-.59-.118-1.199-.131-1.793-.227-2.939-.477-2.46-.499-5.247-1.012-3.3-.607-6.634-1.049-9.967-1.424-2.843-.32-1.791-.28-4.84-.308-.528-.005-1.06-.058-1.583.012-1.561.21-2.806 1.188-4.082 2-.958.612-1.98 1.12-2.935 1.735-.45.29-.852.647-1.303.935-2.455 1.565-6.196 3.226-7.716 5.838-.133.228-.783.997-.649 1.314.161.381.47.68.697 1.026" style="opacity:1;fill:#9a9996;stroke:none;stroke-width:.749586;stroke-linecap:round;fill-opacity:1" transform="rotate(-3.638 -125.797 2751.176)scale(1.26054)"/><path d="M477.934 443.996c-7.794-9.588-23.253-8.857-31.077.34-10.818 6.898-8.217 23.702-21.112 26.836-7.173 1.824-18.43 18.073-3.526 13.4 9.159-5.268 22.797-13.068 32.184-4.036 2.302 8.655 8.72 24.432 19.613 14.664 6.238-8.89 19.258-16.612 19.165.397 3.989 12.6 17.532 6.81 24.65.977 4.673 8.807 14.346 15.615 22.017 13.535 8.6 11.909 24.726 9.1 37.363 9.132 11.136 4.46 36.425 7.71 30.383-11.765-4.12-8.732-29.127 1.934-20.34-11.27 10.558-2.62 21.395 2.87 32.16 3.007 9.25 3.005 31.273 1.14 23.11-13.163-6.737-8.62-18.925-7.563-28.674-9.565-10.488-1.254-21.6-2.653-30.35-9.106-25.173-4.654-52.035-4.76-74.966-17.484-10.032-2.865-21.224-.605-30.6-5.9" style="opacity:1;fill:#c0bfbc;stroke:none;stroke-width:.749586;stroke-linecap:round;fill-opacity:1" transform="rotate(-3.638 -125.797 2751.176)scale(1.26054)"/><path d="M236.906 407.592c-7.543 1.843-15.252-.694-22.656-2.163-2.428-.79-15.585 1.828-9.151 5.118 3.466 2.084 11.912 5.694 5.562 6.725-5.179-1.31-11.461-1.63-15.154 3.173-4.417 3.93-3.74 13.148 3.295 13.354 5.288-1.533 8.15 2.441 10.901 6.395 1.96 4.21 7.733 4.646 7.622-.991.818-7.959 5.649-12.037 13.516-11.906 4.77-.506-3.488 5.68.997 8.21 5.93-4.407 20.73-.678 25.476 2.445 5.216 4.55 10.232-1.636 11.403-6.567 5.932-11.507 21.576-16.081 32.932-10.072 10.165.788 18.398-8.707 28.665-6.989.797.623-4.464-2.865-5.248-4.749-3.614-4.726-9.013-9.996-15.54-8.06-8.692 1.387-17.613 1.124-26.413 1.268-15.463.116-31.453-.648-46.207 4.81" style="opacity:1;fill:#c0bfbc;fill-opacity:1;stroke:none;stroke-width:.749586;stroke-linecap:round" transform="rotate(-3.638 -125.797 2751.176)scale(1.26054)"/><path d="M277.354 433.289c-14.317 3.894-30.939 2.101-42.921 12.333-6.328 3.56-2.104 11.397 4.4 8.406 5.975-2.222 11.378-1.037 14.606 4.282 7.133 1.967 8.243 10.078 14.091 13.588 5.965 3.854 14.351-4.487 8.69-9.984-7.721-4.568.28-13.041 6.74-9.026 4.18 4.063 10.424 1.277 15.035 3.348 2.11 3.334 4.02 8.022 8.455 7.057 4.995 6.87 10.824-.41 10.154-6.526.036-5.851-6.659-7.88-10.975-10.046-8.833-3.127-17.602-6.542-25.455-11.751a413.676 413.676 0 0 0-2.82-1.681" style="opacity:1;fill:#c0bfbc;fill-opacity:1;stroke:none;stroke-width:.749586;stroke-linecap:round" transform="rotate(-3.638 -125.797 2751.176)scale(1.26054)"/><path d="M525.805 376.256c-19.684-15.79-76.078 1.531-46.092 24.467-.081 9.178-9.888 28.053 10.155 22.634 16.877-9.079 21.959-9.289 17.44 8.428 8.105 2.086 28.183-5.298 12.181 4.78-11.244 20.69 35.734 1.68 20.313 18.53 12.777 18.313 57.485 3.437 25.996-14.542-18.22-17.565 45.79 15.264 33.266-11.114-23.936-8.561 12.196-11.166 21.817-4.559 27.358 1.638-11.273-31.34-23.52-24.906-12.563.558-25.3-5.438-14.179-16.629-15.34-14.827-38.829 1.457-57.377-7.09" style="opacity:1;fill:#c0bfbc;stroke:none;stroke-width:.749586;stroke-linecap:round;fill-opacity:1" transform="rotate(-3.638 -125.797 2751.176)scale(1.26054)"/><path d="M224.67 315.38c-10.514 11.526-27.469 13.924-37.98 25.454-4.674 10.092 21.486.068 10.885 10.987-15.793 10.77-35.795 8.099-53.236 13.873-9.07 1.328-10.714 12.278-1.522 14.425 7.267 6.946-7.618 15.523-.906 24.39 4.702 10.08 21.81 8.62 25.117-2.094 4.466-7.893-2.68-26.098 10.553-25.906 10.991 7.39 13.607-8.787 22.412-10.82 8.162-.647 16.916-6.718 24.047-5.408 1.385 5.667-8.722 19.26 4.025 13.641 6.75-5.066 15.227-6.349 21.214 3.032 4.761 5.425 4.286 2.271 11.323.675 11.587-1.925 17.718 8.99 25.32 14.63 8.338.91 13.309-10.68 9.963-17.93-1.425-11.71 15.03 1.279 21.477-1.916 12.579-7.345-5.657-13.722-12.957-12.946-13.03-4.78 2.122-17.78 10.349-17.816 9.372-3.76 18.766 1.668 27.997.866 9.022-1.25 17.76-4.473 25.466-9.323 4.555-10.499-13.775-8.623-20.293-10.271-21.865-2.199-43.961-1.552-65.693 1.542-12.927.592-25.222-4.04-37.06-8.59-6.682-1.762-13.725-1.568-20.501-.495" style="opacity:1;fill:#c0bfbc;fill-opacity:1;stroke:none;stroke-width:.749586;stroke-linecap:round" transform="rotate(-3.638 -125.797 2751.176)scale(1.26054)"/><path d="M457.298 333.03c5.388 8.428 15.127 9.979 27.095 9.953-.74 8.98-21.96 22.088-4.364 26.968 13.9.518 26.397-10.726 40.94-6.37 16.055 9.498 19.995-10.186 23.345-18.695 12.662-.044 17.394 6.925 30.337 6.819 12.744.83 26.13-2.213 35.832-10.794 10.831-2.206 25.709-16.36 6.082-18.995-17.335-2.909-36.532 6.783-52.323-3.705-4.465-11.057-10.656-25.938-25.857-18.092-14.547 9.557-39.746-.06-53.958-3.043-16.793-.573-66.674 2.523-82.398 8.049-7.25 12.495 46.407 4.64 53.101 8.385 14.33 6.031 12.424 21.068 2.168 19.52" style="opacity:1;fill:#c0bfbc;stroke:none;stroke-width:.749586;stroke-linecap:round;fill-opacity:1" transform="rotate(-3.638 -125.797 2751.176)scale(1.26054)"/><path d="M174.541 269.647c13.898-.904 23.247 3.645 36.663-1.686 6.827-3.773 14.973-5.093 22.698-4.307 4.326-.15 7.866 4.496 4.544 8.114-2.279 4.185-7.673 4.276-11.567 6.27-10.298 3.773-21 8.718-27.238 18.197-6.05 6.082-14.233 11.608-23.2 10.705-4.74-.557-8.72-3.885-11.011-7.944-9.214 1.438-17.666 7.268-27.234 6.321-4.624-.475-7.55-4.906-8.1-9.212 10.128-7.676 12.216-16.232 23.422-22.575 4.958-.265 12.344 1.301 13.81 4.96 3.869-.04 6.76-6.635 7.213-8.843" style="opacity:1;fill:#c0bfbc;fill-opacity:1;stroke:none;stroke-width:.749586;stroke-linecap:round" transform="rotate(-3.638 -125.797 2751.176)scale(1.26054)"/><path d="M403.398 219.607c-23.863-13.412-34.438 14.647-48.14 22.23-20.553 6.443-49.514-5.857-64.252 12.407 13.083 1.727 21.775 10.611 19.104 21.268 20.376 1.687 40.4-6.087 60.555 1.707 22.431-10.141 44.102 1.772 66.274-5.441 19.073-5.215 45.912 38.258 58.91 13.366 13.698-17.033 29.642 6.37 46.082 9.134 23.02-.936 39.39 4.597 57.69 16.792 25.855-8.56-13.599-27.897-22.532-34.674-17.296-8.911-36.15-12.225-44.563-32.775-20.42-17.93-40.917 5.143-59.693 5.282-13.686-13.111 7.888-41.35-18.84-48.452-21.272-8.819-30.19 23.947-50.595 19.156M254.033 205.672c-10.082 9.107-23.41.734-32.804-5.03-16.732-8.232-36.86-7.137-54.124-1.158 7.855-.103 20.058 3.734 15.271 13.789 3.454 10.25 15.042 4.345 22.58 4.777 13.134-.22 7.124 13.676-2.206 14.67-5.56 1.167-15.73 8.802-4.43 9.189 8.909-3.48 20.97-8.608 22.948 4.715 7.664 7.036 18.344-.973 20.985-9.117 7.553-9.572 15.7 8.823 25.38 5.155 9.61-7.772 23.168-1.586 33.256-8.117 9.063-10.83-10.696-12.536-17.457-14.977-10.211-3.707-19.769-8.928-29.4-13.896M384.965 139.883c-30.06-17.524-34.677 58.448-81.586 14.445-35.016 8.98-38.539 56.93-111.94 13.307 13.725-15.664 16.045-29.904-5.96-42.817 4.73-27.73 57.246 10.926 40.376-25.108 22.406 2.837 47.04-2.633 55.217-30.052 22.727 2.438 70.341 18.408 48.035-22.782 21.48-2.185 44.356 33.619 61.611 9.71 31.74-8.251 44.238 15.56 58.139 23.351 8.847-12.526 48.91-4.235 36.82 13.696 35.236-4.716 10.177 43.643-22.493 29.904-39.432 13.994 43.56 2.06 45.777 29.696 23.061 8.79 68.742 15.651 73.67 29.577-36.08 22.052-75.535-12.47-114.14-5.787-30.617 6.77-52.975-13.144-56.499-39.81-9.2-3.076-17.725 4.42-27.027 2.67" style="opacity:1;fill:#c0bfbc;stroke:none;stroke-width:.749586;stroke-linecap:round;fill-opacity:1" transform="rotate(-3.638 -125.797 2751.176)scale(1.26054)"/><path d="M488.012 171.354c-28.361 7.776-64.802 3.54-92.808 12.915-11.682 1.131-69.144 11.214-34.216 21.545 21.833 6.143 48.245-5.42 69.422 3.359 10.326 16.503 21.486 32.977 40.867 41.297 13.883 19.97 34.143-2.95 50.476 1.498 17.864 10.714 43.474 33.36 63.083 14.657 7.134-23.138-35.164-24.557-27.678-43.638 5.383-13.254 34.454-14.731 31.862-25.118-15.03-1.321-3.227.212-11.46-.649-25.439-3.16-50.803-7.324-75.622-13.816-5.603-2.835-9.09-8.249-13.926-12.05M278.133 242.918c-24.158 5.422-49.48-5.837-73.156 3.127-7.45 3.52-21.05 10.438-17.782 20.061 6.075 4.44 14.405 2.878 21.31 5.264 9.312 1.16 9.517 9.766 9.052 16.98 7.067 9.503 39.068 21.59 60.593 18.21 8.306-.11 7.956-8.98 12.484-13.842 8.659-11.133 21.386-18.888 28.203-31.437 9.76-16.243-27.051-27.826-40.704-18.363" style="opacity:1;fill:#c0bfbc;stroke:none;stroke-width:.749586;stroke-linecap:round;fill-opacity:1" transform="rotate(-3.638 -125.797 2751.176)scale(1.26054)"/></g></g></svg>