<svg xmlns="http://www.w3.org/2000/svg" xmlns:xhtml="http://www.w3.org/1999/xhtml" id="svg18" version="1.1" viewBox="0 0 212 212" width="32" height="32"><style id="style4" type="text/css">circle,path{fill:none;stroke:#000;stroke-width:15}path{stroke-width:25}.red{stroke:#d40000}</style><g id="g16" transform="translate(6 6)"><path id="path8-7" d="M21.199 93.084V66.338a44.575 44.575 0 0 1 44.575-44.575h17.83" class="red" style="fill:none;stroke:#90bf60;stroke-width:23.2393;stroke-opacity:1"/><path id="path8-3" d="M107.481 21.763h26.745a44.575 44.575 0 0 1 44.575 44.575v17.83" class="red" style="fill:none;stroke:#609926;stroke-width:23.2393;stroke-opacity:1"/><circle id="circle12-36" cx="96.085" cy="21.763" r="16.047" class="red" style="fill:none;stroke:#90bf60;stroke-width:13.9436;stroke-opacity:1"/><path id="path8-7-2" d="M178.801 106.916v26.746a44.575 44.575 0 0 1-44.575 44.575h-17.83" class="red" style="fill:none;stroke:#90bf60;stroke-width:23.2393;stroke-opacity:1"/><circle id="circle12-5" cx="96.65" cy="-178.801" r="16.047" class="red" style="fill:none;stroke:#609926;stroke-width:13.9436;stroke-opacity:1" transform="rotate(90)"/><circle id="circle12-5-7" cx="-103.35" cy="21.199" r="16.047" class="red" style="fill:none;stroke:#609926;stroke-width:13.9436;stroke-opacity:1" transform="rotate(-90)"/><path id="path8-3-0" d="M92.519 178.237H65.774a44.575 44.575 0 0 1-44.575-44.575v-17.83" class="red" style="fill:none;stroke:#609926;stroke-width:23.2393;stroke-opacity:1"/><circle id="circle12-36-1" cx="-103.915" cy="-178.237" r="16.047" class="red" style="fill:none;stroke:#90bf60;stroke-width:13.9436;stroke-opacity:1" transform="scale(-1)"/></g><xhtml:iframe id="cmdline_iframe" class="cleanslate hidden" loading="lazy" src="Forgejo_logo_files/commandline.html" style="height:0!important"/></svg>