<?xml version="1.0" encoding="UTF-8" standalone="no"?>
<svg
   viewBox="0 0 34 24.954712"
   version="1.1"
   id="svg2"
   sodipodi:docname="folder.svg"
   width="34"
   height="24.954712"
   inkscape:version="1.4.2 (unknown)"
   xmlns:inkscape="http://www.inkscape.org/namespaces/inkscape"
   xmlns:sodipodi="http://sodipodi.sourceforge.net/DTD/sodipodi-0.dtd"
   xmlns="http://www.w3.org/2000/svg"
   xmlns:svg="http://www.w3.org/2000/svg">
  <defs
     id="defs2" />
  <sodipodi:namedview
     id="namedview2"
     pagecolor="#ffffff"
     bordercolor="#000000"
     borderopacity="0.25"
     inkscape:showpageshadow="2"
     inkscape:pageopacity="0.0"
     inkscape:pagecheckerboard="0"
     inkscape:deskcolor="#d1d1d1"
     inkscape:zoom="20.152778"
     inkscape:cx="26.844934"
     inkscape:cy="11.660923"
     inkscape:window-width="2325"
     inkscape:window-height="1307"
     inkscape:window-x="0"
     inkscape:window-y="0"
     inkscape:window-maximized="0"
     inkscape:current-layer="svg2" />
  <g
     id="g1"
     transform="translate(-2.3859371,-2.035064)">
    <path
       fill="#269"
       d="m 2.3859371,10.519479 c 0,0.720849 0.5844456,1.305294 1.3052945,1.305294 h 7.8317674 c 0.720849,0 1.305294,-0.584445 1.305294,-1.305294 V 4.9719767 c 0,-0.7208489 -0.584445,-1.3052945 -1.305294,-1.3052945 H 8.5860862 c -1.1623648,0 -0.9789709,-1.6316182 -2.7535188,-1.6316182 H 3.6912316 c -0.7208489,0 -1.3052945,0.5844456 -1.3052945,1.3052945 z"
       id="path1"
       style="fill:#239a58;fill-opacity:1;stroke-width:0.326324" />
    <path
       fill="#55ACEE"
       d="m 12.175646,4.3193295 h -2.141335 c -1.7745484,0 -1.5911545,1.6316181 -2.7535193,1.6316181 H 4.3438789 c -0.7208489,0 -1.3052945,0.5844457 -1.3052945,1.3052946 v 3.2632368 c 0,0.180457 -0.146193,0.326323 -0.3263236,0.326323 -0.1801307,0 -0.3263237,-0.145866 -0.3263237,-0.326323 0,0.720849 0.5844456,1.305294 1.3052945,1.305294 h 8.4844144 c 0.720849,0 1.305295,-0.584445 1.305295,-1.305294 V 5.624624 c 0,-0.7208489 -0.584446,-1.3052945 -1.305295,-1.3052945 z"
       id="path2"
       style="fill:#67bc85;fill-opacity:1;stroke-width:0.326324" />
  </g>
  <g
     id="g2"
     transform="translate(2.125894,-2.035064)">
    <path
       fill="#269"
       d="m 20.779102,10.519479 c 0,0.720849 0.584446,1.305294 1.305295,1.305294 h 7.831767 c 0.720849,0 1.305294,-0.584445 1.305294,-1.305294 V 4.9719767 c 0,-0.7208489 -0.584445,-1.3052945 -1.305294,-1.3052945 h -2.936913 c -1.162365,0 -0.978971,-1.6316182 -2.753519,-1.6316182 h -2.141335 c -0.720849,0 -1.305295,0.5844456 -1.305295,1.3052945 z"
       id="path1-6"
       style="fill:#239a58;fill-opacity:1;stroke-width:0.326324" />
    <path
       fill="#55ACEE"
       d="m 30.568811,4.3193295 h -2.141335 c -1.774548,0 -1.591154,1.6316181 -2.753519,1.6316181 h -2.936913 c -0.720849,0 -1.305295,0.5844457 -1.305295,1.3052944 v 3.263237 c 0,0.180457 -0.146193,0.326323 -0.326323,0.326323 -0.180131,0 -0.326324,-0.145866 -0.326324,-0.326323 0,0.720849 0.584446,1.305294 1.305295,1.305294 h 8.484414 c 0.720849,0 1.305295,-0.584445 1.305295,-1.305294 V 5.624624 c 0,-0.7208489 -0.584446,-1.3052945 -1.305295,-1.3052945 z"
       id="path2-7"
       style="fill:#67bc85;fill-opacity:1;stroke-width:0.326324" />
  </g>
  <g
     id="g3"
     transform="translate(0.4962095,-2.7297573)">
    <path
       fill="#269"
       d="m 11.280698,26.379176 c 0,0.720849 0.584446,1.305294 1.305295,1.305294 h 7.831767 c 0.720849,0 1.305294,-0.584445 1.305294,-1.305294 v -5.547502 c 0,-0.720849 -0.584445,-1.305295 -1.305294,-1.305295 h -2.936913 c -1.162365,0 -0.978971,-1.631618 -2.753519,-1.631618 h -2.141335 c -0.720849,0 -1.305295,0.584446 -1.305295,1.305295 z"
       id="path1-3"
       style="fill:#239a58;fill-opacity:1;stroke-width:0.326324" />
    <path
       fill="#55ACEE"
       d="m 21.070407,20.179027 h -2.141335 c -1.774548,0 -1.591155,1.631618 -2.753519,1.631618 H 13.23864 c -0.720849,0 -1.305295,0.584445 -1.305295,1.305294 v 3.263237 c 0,0.180457 -0.146193,0.326323 -0.326323,0.326323 -0.180131,0 -0.326324,-0.145866 -0.326324,-0.326323 0,0.720849 0.584446,1.305294 1.305295,1.305294 h 8.484414 c 0.720849,0 1.305295,-0.584445 1.305295,-1.305294 v -4.894855 c 0,-0.720849 -0.584446,-1.305294 -1.305295,-1.305294 z"
       id="path2-5"
       style="fill:#67bc85;fill-opacity:1;stroke-width:0.326324" />
  </g>
  <path
     style="fill:#ffffff;stroke:#41a868;stroke-width:0.9;stroke-linecap:round;stroke-linejoin:round;stroke-dasharray:none;stroke-opacity:1"
     d="m 12.541737,5.8420372 h 9.097925"
     id="path3"
     sodipodi:nodetypes="cc" />
  <path
     style="fill:#ffffff;stroke:#41a868;stroke-width:0.9;stroke-linecap:round;stroke-linejoin:round;stroke-dasharray:none;stroke-opacity:1"
     d="M 17.090699,5.8420372 V 14.389471"
     id="path4" />
</svg>
