<?xml version="1.0" encoding="UTF-8" standalone="no"?>
<svg
   viewBox="0 0 19.457554 26.297951"
   version="1.1"
   id="svg2"
   sodipodi:docname="logo.svg"
   width="19.457554"
   height="26.297951"
   inkscape:version="1.4.2 (unknown)"
   xmlns:inkscape="http://www.inkscape.org/namespaces/inkscape"
   xmlns:sodipodi="http://sodipodi.sourceforge.net/DTD/sodipodi-0.dtd"
   xmlns="http://www.w3.org/2000/svg"
   xmlns:svg="http://www.w3.org/2000/svg">
  <defs
     id="defs2" />
  <sodipodi:namedview
     id="namedview2"
     pagecolor="#ffffff"
     bordercolor="#000000"
     borderopacity="0.25"
     inkscape:showpageshadow="2"
     inkscape:pageopacity="0.0"
     inkscape:pagecheckerboard="0"
     inkscape:deskcolor="#d1d1d1"
     inkscape:zoom="28.500332"
     inkscape:cx="9.4560302"
     inkscape:cy="13.087567"
     inkscape:window-width="2325"
     inkscape:window-height="1307"
     inkscape:window-x="0"
     inkscape:window-y="0"
     inkscape:window-maximized="0"
     inkscape:current-layer="svg2" />
  <g
     id="g2"
     transform="translate(-12.416552,-1.3809882)">
    <path
       fill="#269"
       d="m 20.779102,10.519479 c 0,0.720849 0.584446,1.305294 1.305295,1.305294 h 7.831767 c 0.720849,0 1.305294,-0.584445 1.305294,-1.305294 V 4.9719767 c 0,-0.7208489 -0.584445,-1.3052945 -1.305294,-1.3052945 h -2.936913 c -1.162365,0 -0.978971,-1.6316182 -2.753519,-1.6316182 h -2.141335 c -0.720849,0 -1.305295,0.5844456 -1.305295,1.3052945 z"
       id="path1-6"
       style="fill:#e66100;fill-opacity:1;stroke-width:0.326324" />
    <path
       fill="#55ACEE"
       d="m 30.568811,4.3193295 h -2.141335 c -1.774548,0 -1.591154,1.6316181 -2.753519,1.6316181 h -2.936913 c -0.720849,0 -1.305295,0.5844457 -1.305295,1.3052944 v 3.263237 c 0,0.180457 -0.146193,0.326323 -0.326323,0.326323 -0.180131,0 -0.326324,-0.145866 -0.326324,-0.326323 0,0.720849 0.584446,1.305294 1.305295,1.305294 h 8.484414 c 0.720849,0 1.305295,-0.584445 1.305295,-1.305294 V 5.624624 c 0,-0.7208489 -0.584446,-1.3052945 -1.305295,-1.3052945 z"
       id="path2-7"
       style="fill:#1c71d8;fill-opacity:1;stroke-width:0.326324" />
  </g>
  <path
     fill="#269"
     d="m 8.3625496,24.303495 c 0,0.720849 0.584446,1.305294 1.305295,1.305294 h 7.8317674 c 0.720849,0 1.305294,-0.584445 1.305294,-1.305294 v -5.547502 c 0,-0.720849 -0.584445,-1.305295 -1.305294,-1.305295 h -2.936913 c -1.162365,0 -0.978971,-1.631618 -2.753519,-1.631618 H 9.6678446 c -0.720849,0 -1.305295,0.584446 -1.305295,1.305295 z"
     id="path1-3"
     style="fill:#e66100;fill-opacity:1;stroke-width:0.326324" />
  <path
     fill="#55ACEE"
     d="m 18.152259,18.103346 h -2.141335 c -1.774548,0 -1.591155,1.631618 -2.753519,1.631618 h -2.936913 c -0.7208494,0 -1.3052954,0.584445 -1.3052954,1.305294 v 3.263237 c 0,0.180457 -0.146193,0.326323 -0.326323,0.326323 -0.180131,0 -0.326324,-0.145866 -0.326324,-0.326323 0,0.720849 0.584446,1.305294 1.305295,1.305294 h 8.4844144 c 0.720849,0 1.305295,-0.584445 1.305295,-1.305294 V 19.40864 c 0,-0.720849 -0.584446,-1.305294 -1.305295,-1.305294 z"
     id="path2-5"
     style="fill:#1c71d8;fill-opacity:1;stroke-width:0.326324" />
  <path
     style="fill:none;stroke:#e66100;stroke-width:1;stroke-linecap:round;stroke-linejoin:round;stroke-dasharray:none"
     d="M 1.5613879,0.5 V 25.797951"
     id="path1" />
  <circle
     style="fill:#e66100;stroke:none;stroke-width:1;stroke-linecap:round;stroke-linejoin:round;stroke-dasharray:none"
     id="path2"
     cx="1.5613854"
     cy="5.6013808"
     r="1.5613853" />
  <circle
     style="fill:#e66100;stroke:none;stroke-width:1;stroke-linecap:round;stroke-linejoin:round;stroke-dasharray:none"
     id="path2-9"
     cx="1.5613854"
     cy="20.840723"
     r="1.5613854" />
  <path
     style="fill:none;stroke:#e66100;stroke-width:1;stroke-linecap:round;stroke-linejoin:round;stroke-dasharray:none"
     d="M 1.5613879,5.6013807 H 6.0998516"
     id="path3"
     sodipodi:nodetypes="cc" />
  <path
     style="fill:none;stroke:#e66100;stroke-width:1;stroke-linecap:round;stroke-linejoin:round;stroke-dasharray:none"
     d="M 1.5613881,20.840723 H 6.0998516"
     id="path3-2"
     sodipodi:nodetypes="cc" />
</svg>
