<?xml version="1.0" encoding="UTF-8" standalone="no"?>
<svg
   width="16"
   height="16"
   fill="none"
   viewBox="-0.8 -1.6 16 16"
   version="1.1"
   id="svg1"
   sodipodi:docname="icon.svg"
   inkscape:version="1.4.2 (unknown)"
   xmlns:inkscape="http://www.inkscape.org/namespaces/inkscape"
   xmlns:sodipodi="http://sodipodi.sourceforge.net/DTD/sodipodi-0.dtd"
   xmlns="http://www.w3.org/2000/svg"
   xmlns:svg="http://www.w3.org/2000/svg">
  <defs
     id="defs1" />
  <sodipodi:namedview
     id="namedview1"
     pagecolor="#ffffff"
     bordercolor="#000000"
     borderopacity="0.25"
     inkscape:showpageshadow="2"
     inkscape:pageopacity="0.0"
     inkscape:pagecheckerboard="0"
     inkscape:deskcolor="#d1d1d1"
     inkscape:zoom="64.125746"
     inkscape:cx="9.863433"
     inkscape:cy="8.179242"
     inkscape:window-width="2739"
     inkscape:window-height="1504"
     inkscape:window-x="0"
     inkscape:window-y="0"
     inkscape:window-maximized="0"
     inkscape:current-layer="svg1" />
  <path
     fill="#000"
     d="M10 2a1 1 0 0 0-1 1v10a3 3 0 1 1-6 0V7a1 1 0 0 0-1-1H0V4h2a3 3 0 0 1 3 3v6a1 1 0 1 0 2 0V3a3 3 0 0 1 6 0v6a1 1 0 0 0 1 1h2v2h-2a3 3 0 0 1-3-3V3a1 1 0 0 0-1-1"
     style="fill:#e66100;fill-opacity:1"
     transform="translate(-.8 -1.6)"
     id="path1" />
</svg>
