<?xml version="1.0" encoding="UTF-8" standalone="no"?>
<svg
   width="16"
   height="16"
   fill="none"
   viewBox="-0.8 -1.6 16 16"
   version="1.1"
   id="svg1"
   sodipodi:docname="icon-maskable.svg"
   inkscape:version="1.4.2 (unknown)"
   xmlns:inkscape="http://www.inkscape.org/namespaces/inkscape"
   xmlns:sodipodi="http://sodipodi.sourceforge.net/DTD/sodipodi-0.dtd"
   xmlns="http://www.w3.org/2000/svg"
   xmlns:svg="http://www.w3.org/2000/svg">
  <defs
     id="defs1" />
  <sodipodi:namedview
     id="namedview1"
     pagecolor="#ffffff"
     bordercolor="#000000"
     borderopacity="0.25"
     inkscape:showpageshadow="2"
     inkscape:pageopacity="0.0"
     inkscape:pagecheckerboard="0"
     inkscape:deskcolor="#d1d1d1"
     inkscape:zoom="45.34375"
     inkscape:cx="9.2736044"
     inkscape:cy="7.0020675"
     inkscape:window-width="2739"
     inkscape:window-height="1504"
     inkscape:window-x="0"
     inkscape:window-y="0"
     inkscape:window-maximized="0"
     inkscape:current-layer="svg1" />
  <rect
     style="fill:#e66100;stroke:none;stroke-width:10;stroke-linecap:round;stroke-linejoin:round"
     id="rect1"
     width="16"
     height="16"
     x="-0.80000001"
     y="-1.6" />
  <path
     fill="#000"
     d="m 8.6027136,2.1910221 a 0.70135679,0.70135679 0 0 0 -0.7013567,0.701357 v 7.0135675 a 2.1040705,2.1040705 0 1 1 -4.2081408,0 V 5.6978063 A 0.70135679,0.70135679 0 0 0 2.9918593,4.9964493 H 1.5891458 V 3.5937358 h 1.4027135 a 2.1040703,2.1040703 0 0 1 2.1040704,2.1040705 v 4.2081403 a 0.7013568,0.7013568 0 1 0 1.4027136,0 V 2.8923791 a 2.1040706,2.1040706 0 0 1 4.2081407,0 v 4.2081407 a 0.70135679,0.70135679 0 0 0 0.701357,0.7013568 h 1.402713 V 9.2045901 H 11.408141 A 2.1040703,2.1040703 0 0 1 9.3040704,7.1005198 V 2.8923791 A 0.70135679,0.70135679 0 0 0 8.6027136,2.1910221"
     style="fill:#ffffff;fill-opacity:1;stroke-width:0.701357"
     id="path1" />
</svg>
