<?xml version="1.0" encoding="UTF-8" standalone="no"?>
<svg
   width="933.333"
   height="933.333"
   version="1.0"
   viewBox="0 0 700 700"
   id="svg2"
   sodipodi:docname="icon-maskable.svg"
   inkscape:version="1.4.2 (unknown)"
   xmlns:inkscape="http://www.inkscape.org/namespaces/inkscape"
   xmlns:sodipodi="http://sodipodi.sourceforge.net/DTD/sodipodi-0.dtd"
   xmlns="http://www.w3.org/2000/svg"
   xmlns:svg="http://www.w3.org/2000/svg">
  <defs
     id="defs2" />
  <sodipodi:namedview
     id="namedview2"
     pagecolor="#ffffff"
     bordercolor="#000000"
     borderopacity="0.25"
     inkscape:showpageshadow="2"
     inkscape:pageopacity="0.0"
     inkscape:pagecheckerboard="0"
     inkscape:deskcolor="#d1d1d1"
     inkscape:zoom="1.0992989"
     inkscape:cx="506.68658"
     inkscape:cy="509.4156"
     inkscape:window-width="2618"
     inkscape:window-height="1429"
     inkscape:window-x="0"
     inkscape:window-y="0"
     inkscape:window-maximized="0"
     inkscape:current-layer="svg2" />
  <rect
     style="fill:#ffffff;stroke:none;stroke-width:0.75;stroke-linecap:round;stroke-linejoin:round;fill-opacity:1"
     id="rect1"
     width="700"
     height="700"
     x="0"
     y="0" />
  <g
     id="g1"
     transform="matrix(0.64430657,0,0,0.64430657,122.32296,122.23763)">
    <path
       d="m 4948,6348 c -662,-677 -956,-982 -1123,-1168 -32,-36 -62,-67 -65,-70 -3,-3 -31,-35 -62,-71 -127,-151 -157,-391 -77,-600 26,-68 117,-233 137,-249 4,-3 25,-25 47,-48 l 40,-42 L 2166,2421 488,743 732,497 975,250 2175,1450 3374,2649 4566,1457 C 5222,802 5763,264 5768,262 c 10,-3 473,459 480,478 2,5 -534,547 -1191,1204 l -1194,1195 185,183 c 250,248 262,258 296,258 11,0 41,-19 66,-43 139,-131 331,-199 538,-190 160,6 273,63 475,236 132,114 199,179 845,822 l 642,640 -161,163 c -88,90 -162,162 -164,160 -3,-1 -256,-254 -564,-561 l -560,-559 -160,158 c -89,87 -161,162 -161,165 0,4 251,259 559,567 l 558,560 -159,161 c -87,89 -161,161 -164,161 -3,0 -258,-252 -566,-559 l -560,-560 -164,162 -164,162 560,560 c 308,308 560,563 560,566 0,5 -194,202 -292,297 l -34,32 z"
       style="fill:#e66100;fill-opacity:1"
       transform="matrix(0.1,0,0,-0.1,0,700)"
       id="path1" />
    <path
       d="M 489,6349 C 381,6234 299,6092 235,5909 c -20,-57 -35,-104 -34,-104 1,0 -3,-22 -9,-50 -42,-181 -46,-400 -11,-568 72,-343 178,-493 781,-1102 199,-202 1018,-1020 1054,-1055 6,-5 974,962 974,973 0,9 -1704,1713 -2130,2130 -156,152 -291,277 -299,277 -9,0 -41,-27 -72,-61"
       style="fill:#e66100;fill-opacity:1"
       transform="matrix(0.1,0,0,-0.1,0,700)"
       id="path2" />
  </g>
</svg>
