<svg xmlns="http://www.w3.org/2000/svg" width="77.918" height="77.918" viewBox="-5 -10 77.918 77.918"><path d="M69.412 2.605H45.814V-.594c0-4.3-3.5-7.8-7.801-7.8-4 0-7.2 3-7.7 6.8l-12.698-4.7c-.899-.3-1.899-.3-2.801.102-.898.399-1.5 1.102-1.898 2L.213 31.706c-.399 1 .199 2.2 1.199 2.5 1 .399 2.199-.199 2.5-1.199L16.514-2.39 40.616 6.41l1.199.398v5.602c0 2.102-1.7 3.8-3.8 3.8-2.102 0-3.802-1.698-3.802-3.8V8.012h-4v4.398c0 4.3 3.5 7.8 7.801 7.8s7.801-3.5 7.801-7.8V8.308l18.301 6.7-17.402 47.699-24.301-8.899-5.398-2-17.898-6.601 1.8-4.899c.399-1-.199-2.199-1.199-2.601-1-.399-2.199.199-2.601 1.199l-1.903 5.3c-.3.9-.3 1.9.102 2.801.398.899 1.101 1.5 2 1.899l17 6.2v2.6c0 2 1.601 3.602 3.601 3.602h13.301l14.398 5.301c.399.102.801.2 1.2.2 1.5 0 2.898-.9 3.398-2.4l1.102-3.1h18c2 0 3.601-1.602 3.601-3.602l-.004-51.5c.102-2-1.5-3.602-3.5-3.602zm-35.2-3.199c0-2.102 1.7-3.8 3.802-3.8 2.101 0 3.8 1.698 3.8 3.8v3.2h-.101l-7.5-2.7z" style="fill:#239a58;fill-opacity:1"/><path d="m17.643 21.691 1.379-3.754 28.535 10.48-1.38 3.754zM14.104 31.547l1.379-3.754 28.535 10.48-1.38 3.754z" style="fill:#239a58;fill-opacity:1"/></svg>