<?xml version="1.0" encoding="UTF-8" standalone="no"?>
<svg
   version="1.1"
   viewBox="-5 -10 84.371002 84.371003"
   id="svg4"
   sodipodi:docname="favicon.svg"
   width="84.371002"
   height="84.371002"
   inkscape:version="1.4.2 (unknown)"
   xmlns:inkscape="http://www.inkscape.org/namespaces/inkscape"
   xmlns:sodipodi="http://sodipodi.sourceforge.net/DTD/sodipodi-0.dtd"
   xmlns="http://www.w3.org/2000/svg"
   xmlns:svg="http://www.w3.org/2000/svg">
  <defs
     id="defs4" />
  <sodipodi:namedview
     id="namedview4"
     pagecolor="#ffffff"
     bordercolor="#000000"
     borderopacity="0.25"
     inkscape:showpageshadow="2"
     inkscape:pageopacity="0.0"
     inkscape:pagecheckerboard="0"
     inkscape:deskcolor="#d1d1d1"
     inkscape:zoom="0.23750277"
     inkscape:cx="656.83446"
     inkscape:cy="338.94342"
     inkscape:window-width="2091"
     inkscape:window-height="1296"
     inkscape:window-x="0"
     inkscape:window-y="0"
     inkscape:window-maximized="0"
     inkscape:current-layer="svg4" />
  <path
     d="m 75.21388,7.3568438 -0.52734,-0.05859 V 46.107256 c 0,4.207 -3.2734,7.6328 -7.4492,7.7969 -8.7305,0.34766 -18.188,2.8203 -28.105,7.3477 -0.60937,0.27734 -1.2812,0.42188 -1.9453,0.42188 -0.6641,0 -1.3359,-0.14453 -1.9453,-0.42188 -9.9219,-4.5312 -19.379,-7.0039 -28.105,-7.3516 -4.1758,-0.16406 -7.4492,-3.5898 -7.4492,-7.7969 V 7.2943538 l -0.52734,0.05859 C -3.2109,7.6185638 -5,9.622444 -5,12.009146 v 40.289 c 0,2.5859 2.1016,4.6875 4.6875,4.6875 h 3.8086 c 0.05469,0 0.10938,-0.0039 0.16406,-0.0078 8.7656,-0.92969 18.641,1.1797 30.164,6.4375 l 2.7109,1.2422 c 0.20703,0.09375 0.42969,0.14062 0.65234,0.14062 0.22265,0 0.44531,-0.04687 0.64844,-0.14062 l 2.7109,-1.2422 c 10.371,-4.7344 20.605,-7.4219 30.328,-7.9922 h 3.8086 c 2.5859,0 4.6875,-2.1016 4.6875,-4.6875 v -38.727 c 0,-2.386702 -1.7891,-4.3906022 -4.1602,-4.6562022 z"
     id="path1"
     style="fill:#e66100" />
  <path
     d="m 35.62488,6.0018438 c -9.8672,-4.9727002 -19.371,-7.3593998 -28.27,-7.0391 -2.5469,0.09375 -4.543,2.1561998 -4.543,4.6992 V 46.110946 c 0,2.5234 1.9531,4.5781 4.4492,4.6758 8.8633,0.35156 18.406,2.7969 28.363,7.2344 z"
     id="path2"
     style="fill:#e66100"
     sodipodi:nodetypes="ccssccc" />
  <path
     d="m 67.01888,-1.0411562 c -8.9219,-0.3203098 -18.406,2.0663998 -28.27,7.0391 V 58.013946 c 9.9609,-4.4375 19.5,-6.8828 28.367,-7.2344 2.4922,-0.09766 4.4453,-2.1523 4.4453,-4.6758 V 3.6627438 c 0,-2.5430002 -1.9961,-4.60550003 -4.543,-4.6992 z"
     id="path3"
     style="fill:#e66100"
     sodipodi:nodetypes="ccccsscc" />
</svg>
