<?xml version="1.0" encoding="UTF-8" standalone="no"?>
<svg
   version="1.1"
   viewBox="-5 -10 84.371002 84.371003"
   id="svg4"
   sodipodi:docname="logo.svg"
   width="84.371002"
   height="84.371002"
   inkscape:version="1.4.2 (unknown)"
   xmlns:inkscape="http://www.inkscape.org/namespaces/inkscape"
   xmlns:sodipodi="http://sodipodi.sourceforge.net/DTD/sodipodi-0.dtd"
   xmlns="http://www.w3.org/2000/svg"
   xmlns:svg="http://www.w3.org/2000/svg">
  <defs
     id="defs4" />
  <sodipodi:namedview
     id="namedview4"
     pagecolor="#ffffff"
     bordercolor="#000000"
     borderopacity="0.25"
     inkscape:showpageshadow="2"
     inkscape:pageopacity="0.0"
     inkscape:pagecheckerboard="0"
     inkscape:deskcolor="#d1d1d1"
     inkscape:zoom="5.3740741"
     inkscape:cx="49.31082"
     inkscape:cy="54.055823"
     inkscape:window-width="2091"
     inkscape:window-height="1296"
     inkscape:window-x="0"
     inkscape:window-y="0"
     inkscape:window-maximized="0"
     inkscape:current-layer="svg4" />
  <path
     d="M 66.929347,13.01705 66.51689,12.97122 v 30.354344 c 0,3.290493 -2.560281,5.969972 -5.82637,6.098322 -6.828535,0.271922 -14.22569,2.20589 -21.982242,5.746982 -0.476617,0.21692 -1.002086,0.329973 -1.52151,0.329973 -0.519424,0 -1.04487,-0.113048 -1.52151,-0.329973 C 27.904872,51.626807 20.50803,49.692792 13.683016,49.42084 10.416926,49.292523 7.8566464,46.613089 7.8566464,43.322517 V 12.968173 l -0.4124575,0.04583 C 5.5896402,13.221753 4.190301,14.789082 4.190301,16.655834 v 31.51192 c 0,2.022555 1.6437601,3.666314 3.666314,3.666314 H 10.8355 c 0.04278,0 0.08555,-0.0031 0.128319,-0.006 6.855988,-0.727154 14.580002,0.9227 23.592683,5.035072 l 2.120321,0.971583 c 0.161929,0.07332 0.336082,0.109986 0.510226,0.109986 0.174145,0 0.348298,-0.03666 0.507176,-0.109986 l 2.120321,-0.971583 c 8.111647,-3.702996 16.11614,-5.805016 23.720956,-6.251075 h 2.978885 c 2.022553,0 3.666314,-1.643761 3.666314,-3.666314 V 16.655443 c 0,-1.866752 -1.39934,-3.434097 -3.253888,-3.641835 z"
     id="path1"
     style="fill:#e66100;stroke-width:0.782146" />
  <path
     d="M 35.96493,11.95724 C 28.247329,8.0678579 20.81396,6.201108 13.853633,6.4516295 11.861583,6.5249558 10.30034,8.1380948 10.30034,10.127095 v 33.201359 c 0,1.97367 1.527611,3.580747 3.479928,3.657163 6.932403,0.274972 14.396198,2.187587 22.184035,5.658364 z m -19.507529,1.823967 c 5.227557,0.198595 10.720889,1.539892 16.330448,3.987153 0.617161,0.268863 0.901267,0.989885 0.629384,1.610128 -0.201644,0.458291 -0.650769,0.733262 -1.121286,0.733262 -0.164985,0 -0.329971,-0.03361 -0.488841,-0.103876 -5.325326,-2.325089 -10.522224,-3.599128 -15.444275,-3.785436 -0.675211,-0.02444 -1.200752,-0.592719 -1.176271,-1.26794 0.02448,-0.675219 0.607995,-1.206853 1.267939,-1.176271 z m 16.963204,27.59493 c -0.201645,0.458292 -0.65077,0.733264 -1.121286,0.733264 -0.164987,0 -0.329972,-0.03361 -0.488841,-0.103875 -5.325327,-2.325087 -10.522225,-3.599127 -15.444276,-3.785434 -0.675211,-0.02444 -1.200752,-0.59272 -1.17627,-1.267939 0.02448,-0.675219 0.607994,-1.216005 1.267938,-1.176271 5.227558,0.198595 10.720889,1.53989 16.330447,3.987151 0.617161,0.268863 0.901268,0.989885 0.629386,1.610127 z m 0,-7.332627 c -0.201645,0.45829 -0.65077,0.733262 -1.121286,0.733262 -0.164987,0 -0.329972,-0.03361 -0.488841,-0.103874 -5.325327,-2.325088 -10.522225,-3.599128 -15.444276,-3.785434 -0.675211,-0.02444 -1.200752,-0.59272 -1.17627,-1.267939 0.02448,-0.67522 0.607994,-1.194573 1.267938,-1.176271 5.227558,0.198595 10.720889,1.53989 16.330447,3.987151 0.617161,0.268863 0.901268,0.989885 0.629386,1.610127 z m 0,-7.332628 c -0.201645,0.45829 -0.65077,0.733262 -1.121286,0.733262 -0.164987,0 -0.329972,-0.03361 -0.488841,-0.103875 -5.325327,-2.32509 -10.522225,-3.59913 -15.444276,-3.785437 -0.675211,-0.02444 -1.200752,-0.592719 -1.17627,-1.267939 0.02448,-0.675219 0.607994,-1.200752 1.267938,-1.17627 5.227558,0.198594 10.720889,1.539891 16.330447,3.98715 0.617161,0.268864 0.901268,0.989885 0.629386,1.610128 z"
     id="path2"
     style="fill:#e66100;stroke-width:0.782146" />
  <path
     d="M 60.519652,6.4485792 C 53.541414,6.1980497 46.123454,8.0648076 38.408357,11.95419 v 40.684161 c 7.790888,-3.470778 15.251866,-5.383361 22.187163,-5.658365 1.949267,-0.07639 3.476878,-1.683415 3.476878,-3.657162 V 10.12772 c 0,-1.9889995 -1.561244,-3.6021776 -3.553294,-3.6754647 z M 58.008257,38.223303 c -4.922052,0.18332 -10.119418,1.460424 -15.444275,3.785434 -0.15887,0.07028 -0.326915,0.103875 -0.488842,0.103875 -0.470509,0 -0.919648,-0.274972 -1.121286,-0.733262 -0.271922,-0.617163 0.01222,-1.338177 0.629386,-1.61013 5.60948,-2.450309 11.102576,-3.791613 16.330446,-3.98715 0.721047,-0.03361 1.243458,0.501059 1.26794,1.176271 0.02444,0.675213 -0.50106,1.240407 -1.173221,1.267939 z m 0,-7.332628 c -4.922052,0.18332 -10.119418,1.460424 -15.444275,3.785436 -0.15887,0.07026 -0.326915,0.103874 -0.488842,0.103874 -0.470509,0 -0.919648,-0.274972 -1.121286,-0.733262 -0.271922,-0.617161 0.01222,-1.338177 0.629386,-1.610128 5.60948,-2.450311 11.102576,-3.791615 16.330446,-3.98715 0.721047,-0.02444 1.243458,0.501057 1.26794,1.17627 0.02444,0.675212 -0.50106,1.240406 -1.173221,1.267938 z m 0,-7.332628 c -4.922052,0.183319 -10.119418,1.460424 -15.444275,3.785435 -0.15887,0.07026 -0.326915,0.103875 -0.488842,0.103875 -0.470509,0 -0.919648,-0.274972 -1.121286,-0.733262 -0.271922,-0.617161 0.01222,-1.338177 0.629386,-1.610128 5.60948,-2.450311 11.102576,-3.791615 16.330446,-3.987151 0.721047,-0.01833 1.243458,0.501059 1.26794,1.17627 0.02444,0.675212 -0.50106,1.240407 -1.173221,1.267939 z m 0,-7.332629 c -4.922052,0.18332 -10.119418,1.460425 -15.444275,3.785435 -0.15887,0.07027 -0.326915,0.103877 -0.488842,0.103877 -0.470509,0 -0.919648,-0.274972 -1.121286,-0.733263 -0.271922,-0.617161 0.01222,-1.338175 0.629386,-1.610128 5.60948,-2.450311 11.102576,-3.791615 16.330446,-3.987152 0.721047,-0.03972 1.243458,0.501059 1.26794,1.176271 0.02444,0.675212 -0.50106,1.240408 -1.173221,1.26794 z"
     id="path3"
     style="fill:#e66100;stroke-width:0.782146" />
  <path
     d="M 66.929347,13.01705 66.51689,12.97122 v 30.354344 c 0,3.290493 -2.560281,5.969972 -5.82637,6.098322 -6.828535,0.271922 -14.22569,2.20589 -21.982242,5.746982 -0.476617,0.21692 -1.002086,0.329973 -1.52151,0.329973 -0.519424,0 -1.04487,-0.113048 -1.52151,-0.329973 C 27.904872,51.626807 20.50803,49.692792 13.683016,49.42084 10.416926,49.292523 7.8566464,46.613089 7.8566464,43.322517 V 12.968173 l -0.4124575,0.04583 C 5.5896402,13.221753 4.190301,14.789082 4.190301,16.655834 v 31.51192 c 0,2.022555 1.6437601,3.666314 3.666314,3.666314 H 10.8355 c 0.04278,0 0.08555,-0.0031 0.128319,-0.006 6.855988,-0.727154 14.580002,0.9227 23.592683,5.035072 l 2.120321,0.971583 c 0.161929,0.07332 0.336082,0.109986 0.510226,0.109986 0.174145,0 0.348298,-0.03666 0.507176,-0.109986 l 2.120321,-0.971583 c 8.111647,-3.702996 16.11614,-5.805016 23.720956,-6.251075 h 2.978885 c 2.022553,0 3.666314,-1.643761 3.666314,-3.666314 V 16.655443 c 0,-1.866752 -1.39934,-3.434097 -3.253888,-3.641835 z"
     id="path4"
     style="fill:#ea6920;stroke-width:0.782146;fill-opacity:1" />
  <path
     d="M 35.96493,11.95724 C 28.247329,8.0678579 20.81396,6.201108 13.853633,6.4516295 11.861583,6.5249558 10.30034,8.1380948 10.30034,10.127095 v 33.201359 c 0,1.97367 1.527611,3.580747 3.479928,3.657163 6.932403,0.274972 14.396198,2.187587 22.184035,5.658364 z m -19.507529,1.823967 c 5.227557,0.198595 10.720889,1.539892 16.330448,3.987153 0.617161,0.268863 0.901267,0.989885 0.629384,1.610128 -0.201644,0.458291 -0.650769,0.733262 -1.121286,0.733262 -0.164985,0 -0.329971,-0.03361 -0.488841,-0.103876 -5.325326,-2.325089 -10.522224,-3.599128 -15.444275,-3.785436 -0.675211,-0.02444 -1.200752,-0.592719 -1.176271,-1.26794 0.02448,-0.675219 0.607995,-1.206853 1.267939,-1.176271 z m 16.963204,27.59493 c -0.201645,0.458292 -0.65077,0.733264 -1.121286,0.733264 -0.164987,0 -0.329972,-0.03361 -0.488841,-0.103875 -5.325327,-2.325087 -10.522225,-3.599127 -15.444276,-3.785434 -0.675211,-0.02444 -1.200752,-0.59272 -1.17627,-1.267939 0.02448,-0.675219 0.607994,-1.216005 1.267938,-1.176271 5.227558,0.198595 10.720889,1.53989 16.330447,3.987151 0.617161,0.268863 0.901268,0.989885 0.629386,1.610127 z m 0,-7.332627 c -0.201645,0.45829 -0.65077,0.733262 -1.121286,0.733262 -0.164987,0 -0.329972,-0.03361 -0.488841,-0.103874 -5.325327,-2.325088 -10.522225,-3.599128 -15.444276,-3.785434 -0.675211,-0.02444 -1.200752,-0.59272 -1.17627,-1.267939 0.02448,-0.67522 0.607994,-1.194573 1.267938,-1.176271 5.227558,0.198595 10.720889,1.53989 16.330447,3.987151 0.617161,0.268863 0.901268,0.989885 0.629386,1.610127 z m 0,-7.332628 c -0.201645,0.45829 -0.65077,0.733262 -1.121286,0.733262 -0.164987,0 -0.329972,-0.03361 -0.488841,-0.103875 -5.325327,-2.32509 -10.522225,-3.59913 -15.444276,-3.785437 -0.675211,-0.02444 -1.200752,-0.592719 -1.17627,-1.267939 0.02448,-0.675219 0.607994,-1.200752 1.267938,-1.17627 5.227558,0.198594 10.720889,1.539891 16.330447,3.98715 0.617161,0.268864 0.901268,0.989885 0.629386,1.610128 z"
     id="path5"
     style="fill:#ea6920;stroke-width:0.782146;fill-opacity:1" />
  <path
     d="M 60.519652,6.4485792 C 53.541414,6.1980497 46.123454,8.0648076 38.408357,11.95419 v 40.684161 c 7.790888,-3.470778 15.251866,-5.383361 22.187163,-5.658365 1.949267,-0.07639 3.476878,-1.683415 3.476878,-3.657162 V 10.12772 c 0,-1.9889995 -1.561244,-3.6021776 -3.553294,-3.6754647 z M 58.008257,38.223303 c -4.922052,0.18332 -10.119418,1.460424 -15.444275,3.785434 -0.15887,0.07028 -0.326915,0.103875 -0.488842,0.103875 -0.470509,0 -0.919648,-0.274972 -1.121286,-0.733262 -0.271922,-0.617163 0.01222,-1.338177 0.629386,-1.61013 5.60948,-2.450309 11.102576,-3.791613 16.330446,-3.98715 0.721047,-0.03361 1.243458,0.501059 1.26794,1.176271 0.02444,0.675213 -0.50106,1.240407 -1.173221,1.267939 z m 0,-7.332628 c -4.922052,0.18332 -10.119418,1.460424 -15.444275,3.785436 -0.15887,0.07026 -0.326915,0.103874 -0.488842,0.103874 -0.470509,0 -0.919648,-0.274972 -1.121286,-0.733262 -0.271922,-0.617161 0.01222,-1.338177 0.629386,-1.610128 5.60948,-2.450311 11.102576,-3.791615 16.330446,-3.98715 0.721047,-0.02444 1.243458,0.501057 1.26794,1.17627 0.02444,0.675212 -0.50106,1.240406 -1.173221,1.267938 z m 0,-7.332628 c -4.922052,0.183319 -10.119418,1.460424 -15.444275,3.785435 -0.15887,0.07026 -0.326915,0.103875 -0.488842,0.103875 -0.470509,0 -0.919648,-0.274972 -1.121286,-0.733262 -0.271922,-0.617161 0.01222,-1.338177 0.629386,-1.610128 5.60948,-2.450311 11.102576,-3.791615 16.330446,-3.987151 0.721047,-0.01833 1.243458,0.501059 1.26794,1.17627 0.02444,0.675212 -0.50106,1.240407 -1.173221,1.267939 z m 0,-7.332629 c -4.922052,0.18332 -10.119418,1.460425 -15.444275,3.785435 -0.15887,0.07027 -0.326915,0.103877 -0.488842,0.103877 -0.470509,0 -0.919648,-0.274972 -1.121286,-0.733263 -0.271922,-0.617161 0.01222,-1.338175 0.629386,-1.610128 5.60948,-2.450311 11.102576,-3.791615 16.330446,-3.987152 0.721047,-0.03972 1.243458,0.501059 1.26794,1.176271 0.02444,0.675212 -0.50106,1.240408 -1.173221,1.26794 z"
     id="path6"
     style="fill:#ea6920;stroke-width:0.782146;fill-opacity:1" />
</svg>
