<?xml version="1.0" encoding="UTF-8" standalone="no"?>
<!-- Created with Inkscape (http://www.inkscape.org/) -->

<svg
   width="130.955mm"
   height="31.101999mm"
   viewBox="0 0 130.955 31.102"
   version="1.1"
   id="svg1"
   xml:space="preserve"
   inkscape:version="1.4 (e7c3feb100, 2024-10-09)"
   sodipodi:docname="logo.svg"
   inkscape:export-filename="logo.png"
   inkscape:export-xdpi="93.100876"
   inkscape:export-ydpi="93.100876"
   xmlns:inkscape="http://www.inkscape.org/namespaces/inkscape"
   xmlns:sodipodi="http://sodipodi.sourceforge.net/DTD/sodipodi-0.dtd"
   xmlns="http://www.w3.org/2000/svg"
   xmlns:svg="http://www.w3.org/2000/svg"><sodipodi:namedview
     id="namedview1"
     pagecolor="#ffffff"
     bordercolor="#000000"
     borderopacity="0.25"
     inkscape:showpageshadow="2"
     inkscape:pageopacity="0.0"
     inkscape:pagecheckerboard="0"
     inkscape:deskcolor="#d1d1d1"
     inkscape:document-units="mm"
     inkscape:zoom="3.6561031"
     inkscape:cx="89.439491"
     inkscape:cy="58.121993"
     inkscape:window-width="2089"
     inkscape:window-height="1080"
     inkscape:window-x="0"
     inkscape:window-y="0"
     inkscape:window-maximized="0"
     inkscape:current-layer="layer1" /><defs
     id="defs1" /><g
     inkscape:label="Layer 1"
     inkscape:groupmode="layer"
     id="layer1"
     transform="translate(-19.284849,-120.03568)"><rect
       style="fill:#239a58;fill-opacity:1;stroke:none;stroke-width:0.998537;stroke-linecap:round"
       id="rect1"
       width="130.95474"
       height="31.101748"
       x="19.284849"
       y="120.03568"
       rx="5.8000298"
       ry="5.8000298" /><path
       id="path1"
       style="opacity:1;fill:#ffffff;fill-opacity:1;stroke:none;stroke-width:0.998537;stroke-linecap:round"
       d="m 143.77952,141.16983 a 3.633184,3.633184 0 0 0 -3.63337,3.63286 3.633184,3.633184 0 0 0 3.63337,3.63337 3.633184,3.633184 0 0 0 3.63285,-3.63337 3.633184,3.633184 0 0 0 -3.63285,-3.63286 z m 0,2.4691 a 1.1641541,1.1641541 0 0 1 1.16427,1.16376 1.1641541,1.1641541 0 0 1 -1.16427,1.16427 1.1641541,1.1641541 0 0 1 -1.16427,-1.16427 1.1641541,1.1641541 0 0 1 1.16427,-1.16376 z" /><path
       style="font-weight:bold;font-size:29.6333px;font-family:Lato;-inkscape-font-specification:'Lato, Bold';letter-spacing:0px;fill:#ffffff;stroke-width:0.998537;stroke-linecap:round"
       d="m 40.91511,138.06033 v 1.45203 q 0,0.23707 -0.162983,0.45932 -0.148166,0.22225 -0.459316,0.40005 -0.296333,0.16298 -0.726016,0.2667 -0.414866,0.10372 -0.948266,0.10372 -0.622299,0 -1.200148,-0.1778 -0.57785,-0.1778 -1.066799,-0.5334 -0.474133,-0.37042 -0.844549,-0.93345 -0.370416,-0.56304 -0.563033,-1.31868 -0.800099,1.24459 -1.822448,1.92616 -1.022349,0.66675 -2.326214,0.66675 -0.888999,0 -1.585382,-0.23707 -0.696382,-0.23706 -1.229782,-0.69638 0.148167,0.63712 0.192617,1.30387 0.05927,0.68156 0.05927,1.25941 v 3.556 H 26.40961 q -0.770466,0 -1.200149,-0.40005 -0.414866,-0.38524 -0.414866,-1.12607 V 125.3921 h 3.659712 v 8.97889 q 0,1.37794 0.651933,2.20768 0.651933,0.82973 1.926164,0.82973 1.185332,0 2.015065,-0.65193 0.844549,-0.65194 1.348315,-1.83727 v -9.5271 h 3.659713 v 10.71243 q 0,1.00754 0.474133,1.48167 0.474132,0.47413 1.303865,0.47413 z"
       id="text2"
       aria-label="μ" /></g></svg>
