<?xml version="1.0" encoding="UTF-8" standalone="no"?>
<svg
   viewBox="0 0 512 512"
   version="1.1"
   id="svg1"
   sodipodi:docname="favicon.svg"
   inkscape:version="1.4.2 (unknown)"
   xmlns:inkscape="http://www.inkscape.org/namespaces/inkscape"
   xmlns:sodipodi="http://sodipodi.sourceforge.net/DTD/sodipodi-0.dtd"
   xmlns="http://www.w3.org/2000/svg"
   xmlns:svg="http://www.w3.org/2000/svg">
  <defs
     id="defs1" />
  <sodipodi:namedview
     id="namedview1"
     pagecolor="#ffffff"
     bordercolor="#000000"
     borderopacity="0.25"
     inkscape:showpageshadow="2"
     inkscape:pageopacity="0.0"
     inkscape:pagecheckerboard="0"
     inkscape:deskcolor="#d1d1d1"
     inkscape:zoom="2.0039296"
     inkscape:cx="457.60091"
     inkscape:cy="270.21908"
     inkscape:window-width="6144"
     inkscape:window-height="1660"
     inkscape:window-x="0"
     inkscape:window-y="0"
     inkscape:window-maximized="1"
     inkscape:current-layer="svg1" />
  <!--!Font Awesome
                                                                  Free v7.0.1 by
                                                                  @fontawesome -
                                                                  https://fontawesome.com
                                                                  License -
                                                                  https://fontawesome.com/license/free
                                                                  Copyright 2025
                                                                  Fonticons,
                                                                  Inc.-->
  <path
     d="M256 0c4.6                                                                   0 9.2 1 13.4                                                                   2.9L457.8                                                                   82.8c22 9.3                                                                   38.4 31 38.3                                                                   57.2-.5                                                                   99.2-41.3                                                                   280.7-213.6                                                                   363.2-16.7                                                                   8-36.1 8-52.8                                                                   0-172.4-82.5-213.1-264-213.6-363.2-.1-26.2                                                                   16.3-47.9                                                                   38.3-57.2L242.7                                                                   2.9C246.9 1                                                                   251.4 0 256                                                                   0zm0 66.8l0                                                                   378.1c138-66.8                                                                   175.1-214.8                                                                   176-303.4l-176-74.6                                                                   0 0z"
     fill="#e66100"
     id="path1"
     style="fill:#e66100" />
</svg>
