<?xml version="1.0" encoding="UTF-8" standalone="no"?>
<!-- ***** BEGIN LICENSE BLOCK *****
  - Part of the Jellyfin project (https://jellyfin.media)
  - 
  - All copyright belongs to the Jellyfin contributors; a full list can
  - be found in the file CONTRIBUTORS.md
  - 
  - This work is licensed under the Creative Commons Attribution-ShareAlike 4.0 International License.
  - To view a copy of this license, visit http://creativecommons.org/licenses/by-sa/4.0/.
- ***** END LICENSE BLOCK ***** -->

<svg
   id="svg8"
   viewBox="0 0 1536 512"
   version="1.1"
   sodipodi:docname="banner-dark.svg"
   inkscape:version="1.4.2 (unknown)"
   inkscape:export-filename="banner-dark.png"
   inkscape:export-xdpi="48"
   inkscape:export-ydpi="48"
   xmlns:inkscape="http://www.inkscape.org/namespaces/inkscape"
   xmlns:sodipodi="http://sodipodi.sourceforge.net/DTD/sodipodi-0.dtd"
   xmlns:xlink="http://www.w3.org/1999/xlink"
   xmlns="http://www.w3.org/2000/svg"
   xmlns:svg="http://www.w3.org/2000/svg">
  <sodipodi:namedview
     id="namedview8"
     pagecolor="#ffffff"
     bordercolor="#000000"
     borderopacity="0.25"
     inkscape:showpageshadow="2"
     inkscape:pageopacity="0.0"
     inkscape:pagecheckerboard="0"
     inkscape:deskcolor="#d1d1d1"
     inkscape:zoom="0.7084961"
     inkscape:cx="540.58166"
     inkscape:cy="184.89869"
     inkscape:window-width="2966"
     inkscape:window-height="1315"
     inkscape:window-x="0"
     inkscape:window-y="0"
     inkscape:window-maximized="0"
     inkscape:current-layer="svg8" />
  <defs
     id="defs2">
    <linearGradient
       id="linearGradient6"
       inkscape:collect="always">
      <stop
         style="stop-color:#e66100;stop-opacity:1;"
         offset="0"
         id="stop5" />
      <stop
         style="stop-color:#1c71d8;stop-opacity:1;"
         offset="1"
         id="stop6" />
    </linearGradient>
    <linearGradient
       id="linear-gradient"
       x1="110.25"
       y1="213.3"
       x2="496.14"
       y2="436.09"
       gradientUnits="userSpaceOnUse">
      <stop
         offset="0"
         stop-color="#aa5cc3"
         id="stop1" />
      <stop
         offset="1"
         stop-color="#00a4dc"
         id="stop2" />
    </linearGradient>
    <linearGradient
       inkscape:collect="always"
       xlink:href="#linearGradient1"
       id="linearGradient5"
       x1="107.74772"
       y1="210.909"
       x2="488.53513"
       y2="430.75671"
       gradientUnits="userSpaceOnUse"
       gradientTransform="translate(5.42,0.05)" />
    <linearGradient
       id="linearGradient1"
       inkscape:collect="always">
      <stop
         style="stop-color:#e66100;stop-opacity:1;"
         offset="0"
         id="stop3" />
      <stop
         style="stop-color:#1c71d8;stop-opacity:1;"
         offset="1"
         id="stop4" />
    </linearGradient>
    <linearGradient
       inkscape:collect="always"
       xlink:href="#linearGradient6"
       id="linearGradient7"
       x1="211.33093"
       y1="269.79163"
       x2="325.52203"
       y2="338.29211"
       gradientUnits="userSpaceOnUse"
       gradientTransform="translate(5.42,0.05)" />
  </defs>
  <title
     id="title2">banner-dark</title>
  <path
     id="inner-shape-6"
     d="m 261.42,201.65 c -20.4,0 -86.2,119.3 -76.2,139.4 10,20.1 142.5,19.9 152.4,0 9.9,-19.9 -55.7,-139.4 -76.2,-139.4 z"
     fill="url(#linear-gradient)"
     style="fill:url(#linearGradient7);fill-opacity:1" />
  <path
     id="outer-shape-7"
     d="m 261.42,23.35 c -61.6,0 -259.8,359.4 -229.6,420.1 30.2,60.7 429.3,60 459.2,0 29.9,-60 -168,-420.1 -229.6,-420.1 z m 150.5,367.5 c -19.6,39.3 -281.1,39.8 -300.9,0 -19.8,-39.8 110.1,-275.3 150.4,-275.3 40.3,0 170.1,235.9 150.5,275.3 z"
     fill="url(#linear-gradient)"
     style="fill:url(#linearGradient5);fill-opacity:1" />
  <g
     id="banner-dark">
    <g
       id="jellyfin-light-outlines"
       style="isolation:isolate"
       transform="translate(43.8)">
      <path
         d="M556.64,350.75a67,67,0,0,1-22.87-27.47,8.91,8.91,0,0,1-1.49-4.75,7.42,7.42,0,0,1,2.83-5.94,9.25,9.25,0,0,1,6.09-2.38c3.16,0,5.94,1.69,8.31,5.05a48.09,48.09,0,0,0,16.34,20.34,40.59,40.59,0,0,0,24,7.58q20.51,0,33.27-12.62t12.77-33.12V159a8.44,8.44,0,0,1,2.67-6.39,9.56,9.56,0,0,1,6.83-2.52,9,9,0,0,1,6.68,2.52,8.7,8.7,0,0,1,2.53,6.39v138.4a64.7,64.7,0,0,1-8.32,32.67,59,59,0,0,1-23,22.72Q608.62,361,589.9,361A57.21,57.21,0,0,1,556.64,350.75Z"
         fill="#fff"
         id="path2" />
      <path
         d="M831.66,279.47a8.77,8.77,0,0,1-6.24,2.53H713.16q0,17.82,7.27,31.92a54.91,54.91,0,0,0,20.79,22.28q13.51,8.18,31.93,8.17a54,54,0,0,0,25.54-5.94,52.7,52.7,0,0,0,18.12-15.15,10,10,0,0,1,6.24-2.67,8.14,8.14,0,0,1,7.72,7.72,8.81,8.81,0,0,1-3,6.24,74.7,74.7,0,0,1-23.91,19A65.56,65.56,0,0,1,773.45,361q-22.87,0-40.4-9.8a69.51,69.51,0,0,1-27.32-27.48q-9.79-17.66-9.8-40.83,0-24.36,9.65-42.62t25.69-27.92a65.2,65.2,0,0,1,34.16-9.65A70,70,0,0,1,798.84,211a65.78,65.78,0,0,1,25.39,24.36q9.81,16,10.1,38A8.07,8.07,0,0,1,831.66,279.47ZM733.5,231.8Q718.8,243.68,714.64,266H815.92v-2.38A46.91,46.91,0,0,0,807,240.27a48.47,48.47,0,0,0-18.56-15.15,54,54,0,0,0-23-5.2Q748.2,219.92,733.5,231.8Z"
         fill="#fff"
         id="path3" />
      <path
         d="M888.24,355.5a8.92,8.92,0,0,1-15.3-6.38v-202a8.91,8.91,0,1,1,17.82,0v202A8.65,8.65,0,0,1,888.24,355.5Z"
         fill="#fff"
         id="path4" />
      <path
         d="M956.55,355.5a8.92,8.92,0,0,1-15.3-6.38v-202a8.91,8.91,0,1,1,17.82,0v202A8.65,8.65,0,0,1,956.55,355.5Z"
         fill="#fff"
         id="path5" />
      <path
         d="M1122.86,206.11a8.7,8.7,0,0,1,2.53,6.39v131q0,23.44-9.21,40.09a61.58,61.58,0,0,1-25.54,25.25q-16.34,8.61-36.83,8.61a96.73,96.73,0,0,1-23.31-2.68,61.72,61.72,0,0,1-18-7.12q-6.24-3.87-6.24-8.62a17.94,17.94,0,0,1,.6-3,8.06,8.06,0,0,1,3-4.45,7.49,7.49,0,0,1,4.45-1.49,7.91,7.91,0,0,1,3.56.89q19,10.39,36.24,10.4,24.65,0,39.06-15.44t14.4-42.18V333.38a54.37,54.37,0,0,1-21.38,20,62.55,62.55,0,0,1-30.3,7.58q-25.83,0-39.2-15.45t-13.37-41.87V212.5a8.91,8.91,0,1,1,17.82,0V301q0,21.39,9.36,32.38t29.25,11a48,48,0,0,0,23.32-6.09,49.88,49.88,0,0,0,17.82-16,37.44,37.44,0,0,0,6.68-21.24V212.5a9,9,0,0,1,15.29-6.39Z"
         fill="#fff"
         id="path6" />
      <path
         d="M1210.18,161.41q-5.21,6.24-5.2,17.23v30.59h33.27a8.19,8.19,0,0,1,5.79,2.38,8.26,8.26,0,0,1,0,11.88,8.22,8.22,0,0,1-5.79,2.37H1205V349.12a8.91,8.91,0,1,1-17.82,0V225.86h-21.68a7.83,7.83,0,0,1-5.94-2.52,8.21,8.21,0,0,1-2.37-5.79,8,8,0,0,1,2.37-6.09,8.33,8.33,0,0,1,5.94-2.23h21.68V178.64q0-18.7,10.84-29t29-10.24a46.1,46.1,0,0,1,15.45,2.52q7.13,2.53,7.12,8.17a8.07,8.07,0,0,1-2.37,5.94,7.37,7.37,0,0,1-5.35,2.37,18.81,18.81,0,0,1-6.53-1.48,42,42,0,0,0-10.4-1.78Q1215.37,155.18,1210.18,161.41ZM1276,180.87c-2.19-1.88-3.27-4.61-3.27-8.17v-3q0-5.34,3.41-8.17t9.36-2.82q11.88,0,11.88,11v3c0,3.56-1,6.29-3.12,8.17s-5.1,2.82-9.06,2.82S1278.14,182.75,1276,180.87Zm15.59,174.63a8.92,8.92,0,0,1-15.3-6.38V212.5a8.91,8.91,0,1,1,17.82,0V349.12A8.65,8.65,0,0,1,1291.56,355.5Z"
         fill="#fff"
         id="path7" />
      <path
         d="M1452.53,218.88q12.92,16.2,12.92,42.92v87.32a8.4,8.4,0,0,1-2.67,6.38,8.8,8.8,0,0,1-6.24,2.53,8.64,8.64,0,0,1-8.91-8.91V262.69q0-19.31-9.65-31.33t-29.85-12a53.28,53.28,0,0,0-42.77,21.83,36.24,36.24,0,0,0-7.13,21.53v86.43a8.91,8.91,0,1,1-17.82,0V216.06a8.91,8.91,0,1,1,17.82,0V232.4q8-12.77,23-21.24A61.84,61.84,0,0,1,1412,202.7Q1439.61,202.7,1452.53,218.88Z"
         fill="#fff"
         id="path8" />
    </g>
  </g>
</svg>
